<mxfile host="app.diagrams.net" modified="2021-06-06T11:56:31.209Z" agent="5.0 (Windows NT 10.0; Win64; x64) AppleWebKit/537.36 (KHTML, like Gecko) Chrome/91.0.4472.77 Safari/537.36" etag="nX-A5nl-ZHp_ygFuhmfE" version="14.7.6" type="github">
  <diagram id="jhAtcoKvNxPlCc2QzOkt" name="Page-1">
    <mxGraphModel dx="1422" dy="772" grid="0" gridSize="10" guides="1" tooltips="1" connect="1" arrows="1" fold="1" page="1" pageScale="1" pageWidth="827" pageHeight="1169" math="0" shadow="0">
      <root>
        <mxCell id="0" />
        <mxCell id="1" parent="0" />
        <mxCell id="Uk-baVgjcUokTITf2du6-90" value="" style="rounded=0;whiteSpace=wrap;html=1;shadow=0;dashed=1;" vertex="1" parent="1">
          <mxGeometry x="14" y="440.18999999999994" width="347" height="169" as="geometry" />
        </mxCell>
        <mxCell id="Uk-baVgjcUokTITf2du6-78" value="" style="rounded=0;whiteSpace=wrap;html=1;shadow=0;dashed=1;" vertex="1" parent="1">
          <mxGeometry x="591" y="638" width="229" height="72.82" as="geometry" />
        </mxCell>
        <mxCell id="Uk-baVgjcUokTITf2du6-61" value="" style="rounded=0;whiteSpace=wrap;html=1;shadow=0;dashed=1;" vertex="1" parent="1">
          <mxGeometry x="591" y="490.18" width="229" height="72.82" as="geometry" />
        </mxCell>
        <mxCell id="Uk-baVgjcUokTITf2du6-4" value="" style="rounded=0;whiteSpace=wrap;html=1;shadow=0;dashed=1;" vertex="1" parent="1">
          <mxGeometry x="15" y="619.25" width="347" height="169" as="geometry" />
        </mxCell>
        <mxCell id="Uk-baVgjcUokTITf2du6-2" value="" style="shape=image;verticalLabelPosition=bottom;labelBackgroundColor=#ffffff;verticalAlign=top;aspect=fixed;imageAspect=0;image=data:image/png,iVBORw0KGgoAAAANSUhEUgAAAJ4AAACjCAYAAAB7YacIAAAgAElEQVR4Aey9d1Bc2Z7niZUXEhJOAuGFF0h477333vskE5dJkkAm3jshCSsQSAJ5XypV1auueq5728109/Zux8T2zu5GzET09uzuXxs782K6o7vjs3GvREnvFQJJJfOqHhmRcS/X5j33w++c7+/3O+dosfvZLYFPUAJan+Ceu7fcLQF2wduF4JOUwC54n6TYd2+6C94uA5+kBHbB+yTFvnvTXfB2GfgkJbAL3icp9t2b7oK3y8AnKYFd8D5Jse/edBe8XQY+SQnsgvdJin33prvg7TLwSUpgF7xPUuy7N90Fb5eBT1ICu+B9kmLfvekueLsMfJIS2AXvkxT77k13wdtl4JOUwC54n6TYd2+6C94uA5+kBHbB+yTFvnvTXfB2GfgkJbAL3icp9uc31dXSQltLC63Nr7YW2jraaGtroaOljekxI2zMzLE2PonpoWMY7j2KwR7he4xDe45hctSc/NRC2iVKmsskSAoqaamUoJQ0ExMQwllrO1xPmuNqdoJwd3fKUtNRy1oY6eqhW96BrLyasqxcZGWVDLapON/Tj0bayJhSxcPLK9y6MMvSwDANOYX0NXYgK6qiJCWdptJKuiRyJPn1lKXXomkeoa99nLz0ErS1dF8+z+ZzvbLcLO5d8DZL4hMsXw+eNrraOpwwMuG0hRV2ZqdegHfkt8CzNLGjpqiO4Y4h+lq6UEvbGOnsZVQzQEpEDP7Obvg7OhLg4EjUuXMUJyahaWxloK0LebUUdbOCi8Nj3Fq+wld37vPV7XssjUxwb3GZP3v6jLXxSTR1Emoz8+htUjHdPcjyxDT3Lq+xNrXEQOsQbdXdzI9dZ33xLlXF9bvgfQKO3vqWW4GnJVg97efgmR03FsE7fdIKk4OGHN1jwGH9IxzWN+SgviGWpnY0lMkY7Rqmt7mTLomC4Y5eNHIV3s5uWB87jrPZCc6esiTMxZVoj3MUJyTT29hGl6RZtHjnB4Z4vHGTeytrLIxO0FHXQGNRKZoGGZdHxlgZnaBb2sTG/GUeXdvg8xu3+frOE+4u3mZUOU1P0wSL4zdYm7tFWUEVe/fs3bV4b03CRz5hO/B0tLUxOmKI7QkLTp+0xPjAUY7qPwfvkP5REbyTx62pL21gSDVAd6OKrgaFaPE6mxW4253G/NBhHIyMcT9pTtQZD2S5BYy2KmkpqiDM1RN3azvig0NR1ElQVNehrJXQWFqBRtbMgytX+fXjp9y4uEB3Yws3V1Z4fPMGX917xOcbD7m/+ICprgWGFXOoZRMo6tVEhUQj/O7vmg6vVLGb2zaLeLeq3SyJT7DcCbxjhwywMjmJ/Ynn4B0RwNMzQADvgN5RLE3taaxqZrB9AI1MhUaqZKSrF7W8jXMOjpjtP4D1YQNcjY0JtrenMCKaropaYty9cTGywNnMHDsjU/Lik5gdGmVlaoYRlZrbS6v87O4jvr73hI3ZZfoVHSxfmhO/S9MX6ZAokZe201U7woRqBY1sgqGuCbLTsraFToBv8/NybXPL7vKjlcCW4Ok8txj6enoY7DuAxXFT3O0cxarWQO8wh3QPc0DnsAiezUlHmqpbGVINopYq6ZTIGWxX09fWjq+TM5aHD2O+Zy/2hw/hbmxMgocnsW5n8TxhibvZKc5YWOF0woKk4DBuLlzmzuVVJtT9rM+vcGf5Guf7xlA3KinJKKC6vJbailpkVQ0oaxSo63oZbZnhglo4Z5GVS9eoq6lFR+cVsbRr8T4aS9/d6LfUqpYOWi++Olpa7NHSIiEshKTQIDJiIslPTaYqP5fagmwairJorymmr6WWCY2cQVUjSmklLTWlNFXm0lSaRlVWNKWpEaSGehPt5UbYGWeCnJ3wsbUj6qwXnTX1jMia0ZSVUxETRWVsFNKMFEpjI0jz9ybJ14cU/0DiffyI9QokKyIFeWkDfTIFF3v7WBgYZLa/h4GWZioyMilOycLb0QO9HRRrQ71k1+J9R8AnWtkKPMHVoKulzX4dHdJjo8mJj6EkPYWqgjyaK8toqy2jS1LJcFs9F3oVrEz2MjvcxWBHM93yBrpkFajq8pEVp1Cbm0BuTDBJgV5Ee7oT4eFOmNsZ0oJDme7UMN6iQJaRQUFYKNmBflQkRiPJTqM4LpK8qEgyQ8PIiYymJjOf/tYuVqfmeLJ2gy83brI8MsJgSwuaBimqOgk9zW1E+4Wip7V9+621Sb4L3ifi7bvbbgWeYPWE7fpaWiRHhpMZE0lRagI1eVnISvNoLc+nvaoATUMxo211XOxtZaJLRldjJYq6YuQ1ebRV5yApSKI6K4GsyAAS/M4R7u5KsIsLAY5OJAcEMd3VTU1qOtlBQWQFBxDv5U6CjweZYf7EebsT7u5GtKcnJUkpaBqbWbswx+NrN1gcnqCjRkJTQRl9slbm+ka4MnmRmb5hov2C0Nui6twUDcIyIT4JPX39beHbLKDdNt5mSbzn5VbgaWvpsFnVJoaHkhweTHZsBEWJMVRmJFCfk0xLUSrtFVn0S0uYbK9nSF5Fe20BLRXZyErSkBalUJkZQ1lqNKkhPkR7nSHEVahqnfGzdyQjNJKpTg1pQcGkBviREuBDvI8H8b4exPkIltGZIDdnIj09yYiIpCIzG5VMiqK2no46Kf2NSuZ6xrk2scCti1e4t7TO/MgUkb4BO4KXl1uIru6eXfDeM0tvdbmtwdP9zuLFBAUSF+hLWlggOdHBFCeEUpMaiSwnjtaCRDSVmYw0ldLXUERbeSaNxanU5ydSnZtASVokRSlRJIX4EH7OFX8nB/ydnPCwsiEjIoZuaQtxPr7E+3qRFOBDUpA3SUFeRPucwd/ZDi97G/H4aG9fcuLiUTZKmRkdZXZ4UoxQ3J9f5+HCTdbGF5gbmKazoQUPe4cdwassrUZXZ9fivRUo73rwc8CEts9LASFUO8J2UUSEB5EZG0pZZipVubnUFxbQUFxAW3UJ/S3VjKsbGVTVoZQW0izJQ1qXS21pKqWZkRQLAiLEk1hPV6LcnAl0OI2vnT1hHudoqamjq1lOp1RKW1UlZcmJFMdFU5uWRH54CJmB/qQGBJEWFEZJUjrVWcU0lzTR39jDBc0o16YvsTQ0zNLIMB11dVRkZJEYFE64VyB7tfW2tVqvVq+vrrdJFejr7oL3riy91XmvA09wlezX0SIrMZqyzCQay4uQV1WhqqtF3VDDYGsDM92trEx2MzfazlBXPd3t1XQqKpA3FFJfnEpNXiK5MUEk+Z0j5qwbIc5OhLi4khwcynCXhvmJafrkcioz0smNjiQ3IlQErzY1idzQEDKCQ8gMiaAyPZuWsnoWR+fZuLDGt3c+5xf3P2O6swdNvRRVbT3dslZkJZVkxSbvKCJehe3V9e72bnTEf8DXu1Q2C3e3jbdZEu+4fB14Qltun7YWabHhFCTHUJOXgbQwn9ayYpSVxWgayhhpq+VSbwsTXRLUjUW0NeTTXJeDrCqL2vwkqnISyIoKEIVBpLsrgY6O+Dk6EeMfwEB7J2M9fRSlppIY4E9qcCCJPp5kBfuTFxZMotc5Erx9yY2IoaNWyuLoeR6u3mZjdo1RZS8txbV0VTcx1qZhaXiKuYFxmstrKEhOZ6/O9oH+V2F7db0wuxA97e3P3SzmXfA2S+Idl9uBt1dLi5ToULLiwilLi6cqPYmG3AyaCzNoL8+mt6GICWU1g61lKGsyaalKQ1aeRm1BktiOK0mLJjXUh2jPM4QKVa2zE74OjiSGhDGm6WOgo4uEoCCSgwJF8OI8PUgP8CHR04MIZ0cRvPyoONoq6zjfM0S/Uk1rVYMY0x1o7mJl+BJro/PcvnSVtakFuqSt5Cen7diWexW2V9cLc4t2kwTekaO3Pu114AnbBbdJfGgAyeH+5MaGURwfQU1qHJKMOFoKEumoSGekuYQ+qWAJk5EWJVCbH0d5VjQFSeEUJkeQFOxN2FkXAlxO42Fjg8upU0T7BzHc2Y2svIYoQUT4+ZIc6E+ynzfZwf7ECtbR1oYwZ1diznqTFRErVqPD6h7OD06wND7LaFs/9+du8njhDrcuXOVS/yRl6XlE+Qe+M3jyFiU6O7QPNwt41+JtlsQOy+0AE0REcmQI2fERlGcmUZWdgbQgj6aiAtory+iV1TGhamGoTUK7pJDW+lya6jKoLU6kIieGopRwUkO8iHJ3ItrdhQB7O7xtbAlxP0tzdS1dLa2oG+ppryymPCma4pgQalNiyQ/2F53Dab7+ZAaHUZ6YTl1mCc3FTfRK1VzQjLA8OsWVsQkWhwfprK+jJidPFBFhngHs20GBvmrN3mRdqehEZ4drbhbzLnibJbHDcivwdLR1EETEAV1tcpJiKctKQlqSS0tZMR01lWgktYzIG7moUXFlrJ/54U6GO+rpUVagVpSiEFRsWYboIsmLDRbbcrHnzhDm6kKwiyuJQSEMdnQxOzaBprGB2sxkssL8yQsPRJaVQk1SLPlhwWQGBpETGkF1ag6Ksnoujy5wa3adn997xtc3H3Cxu5++xhY66xpQ1UmpLyglOzblndXr6yAc7BlGa4ew2mYx74K3WRI7LLcCT3gBgogQ2nKZ8VEUpcZRl5eOND8LeUkB7eVF9NVXMqGQckktZ0LVgFpWRLskF3ldJk1VGdQVJlOWEUNudPDzqMIZZwIcTuNz2oFoP3/6VZ1M9A5QlJJISpAP6UE+JHqdISPAm+wgP1K8PUk850V+ZAxdtVIuj13gs/X7XLuwzLCim9aSWjR1rQy1qFgcnGRxZJq2mgbyk9LFpsDrIHqX7dXF1ejuVrU7kPSWu7cCT7B4m+ClxoSLVa0gImoyBBGRRnN+Ou0l2fTVlzChqGGouYz26izklek0VaZQVxhPafrz9lx6mB+RZ10JdXUSoxCCiEgIDmO8u58BVReJQujL5ywZof7Ee7mR6nOWFG8Pol2dSfD0pjA6AUVZLVPqATQtShQ1Mroa5Aw0dXFl5BI3Z1a5v7DOtfNLqOobKUh5d/X6OijNj5qjr7MbuXhLtF4e/jxd6ftOYSE7WEdbi8yUOIpzkinLTqQqJwlZaQ5N5Xl0NFTQ3yalo6kaaUUuNcVpVBYlUVEYT0lmLPlJUSSFBRDme44gTw+83Zw55+xImI8v8roG2iWNKGsaGFG0oSgroTwxjuzgQPIFn5y/Pyl+/iT6+IuBfWlhFdW55dQV1tLf1svF/nGWRieYHxjkUk8vHdV1pAaEkRESR7J/DPu1tnfsvg6mt9keExiD3g732Szl3ap2syReWW4JnpBZq62Fnq4Whblp1JblIinNobkij05pBd3NNYyr5Vwa1jDaraCjqYrW+iIaa3NpqMpCUppJdV4a2fGRRAX6EOx9Fp8zLni7uRAfFiY6hC8NTzA7MEZfYxN1menkR4aTExJEeWwMxVGRFERFkxYYQmFcCq0VDcz0TnBj8Tpf3nnKz+485me373Ohu5/OGgnKihqq0nKY6hxAkl/Jfu3tLdHbAPa6Y5vqleho7aa+v4LS262+FjyhTaetRV6mYMUyqMpPpa4wnZbKPBRCDp1cwmhXCxp5PS21hUjKs6gtTaOyMImKnCSKUmNJiQgi1Ocsfu4unHVywN3BnhhRRKg53z/KoLyTwrgEkgP8SfDyJOaMKxn+fqR6e4sWrzw5jc7aRhZHL/Do6l3uXdlgefISI8pumktq6ZEoWBqcZkSupqO2mUdrt6kvqGSPthDSe31E4X3sa2rpRkt7H1rbpE9tvoldi7dZEq8stwRPeGnaWugKYbC0eEpyUyjPEaILSUiK0pGVZtEhLadHXku7rJyG8mzqBCtXnE5FQQrl2QJ48b8F3jknR87YnyY+JIIxTT8XBidQ1TaS6BdIkr8/GcFBxJ/zINXXmyRPL+LOeVOZmkVvo5L5kRkuDk2hljWjrG6gr7GdSdUAG9PLPFy8ycroLL1Nndy+vI6ktBr9HSIK7wM8pbIfbRG81wO+Wcy74G2WxCvL7cATREZ8VDBp8WHkJEVQkBRBaXqM6BJprc6jvaGYlroCaovTqMhPoTQniYL0OApT48hLjCY+2B9/Dzc8nQXo7HCzsychNJKRrj5Gu/opTcklwv0cMZ5epAUFitnCiV6ehLu4EmDvSJxXABnh8UgKq5HXNDHe3cv5viGWRy+y0D/N3QvXeTh/m+nOUTolStoaWokICkVP5yNYvKZOtLV3q9pXUHq71S3BExSsrrbYxosJDyAu3I/U6CAyY4LIjQ8WM0lkZem01eeLsdaqgmSKM+PJS40lMyGK7PhosmMjifb3wdvFCffTdjjbWONqa09ccCQTPcNMaIbJiU4h7Mw5Is+eI9HPj0RfX2I9zhLq7EKwkyvZkfFUpBfQL+9hfnyW9cU1Vi8uipGHwUYNg4LjuGOcPlkn9QVVqOUdpCenfvBqVrCYkvpWtLS3FzGbb+IP0uI9r1Z+V7VqP8+V09YiJzWe4qwkSrMTqK/IpFVagqy+iLKSDAoLU8nLSyEnK4mUhCiSoyOIDQkk1O8snu4OnHGyw9HyNE4WrpSmV6KSqFHVtdNUWkenREZraRlpgcGk+geS6O1Lsn8g6UFhFMYk01xUTVNhDdUZJbSWSRlr62djbIGb44usj57ngqqTrpoKuuoqKU5JoLNRSluDFB8PT/R1tk9l0vkIVW11Zf2uA3nzP2ur5dbgPW+X7NHRoiQ3nfrSXOrLsmlrLKVf3YimU0ajtIzq6nxKS7MpLc6mICeNvLRkUqIjCA/wxNP9NG6OdrjYOOFhdw5ZaQvn+y4x3T1Ff0sXF/oGGVW2U5aQRFpAkNjXNd7bl8zQSLLCYqhKy6e/uZOl4YvcXdzg6dp9fnXnGb++/TnXRmdQlpRTlphIr0zG+uwlnt29y8zoBCF+Qejrbg/eTo7d99HGK8wvRWeHf4DN97Fr8V4kcGq/UH1Cv4KCjCQq8tIoy01CWpWDqrUKRVMlVRU5FBWmkp2VQGZ6POlJMWQkxBIXGkSIjwfnztjjbG+Nwyl7EbyWSiVT3TOMKIfpbergYv8QbZVVpAYFEe56Bh8rG0KcXcmOiEGSW8x4ew8PVm7ybP0R95dvcW3mMgPNKlpKqumVKphS9dJZ3cj1C0t8cesBd6/e4sL4eYL9g18kor6+Ub9P7+AHr24riyvEWmM7iHfBEyX/y6xhATxBOOzR1iI3NZ6SrCRKsuKpK8tALi2hsb6YCqGqzU8mMz2W1MRIkmLCSY+LJj4kiEBPN8442+BkZ4mDhR2ejj4o67uY0EzT39rHoFzDeKeGwrh4Ys55EunuQbCTMyEubmSFR9NSWs2l/nFuzq0x3jmEoqoJVb2cPkUHC2MzYghsWj1Gf1M36xfW+GzjCU/vfM5o/wRnXM6ivUNVukf7wLZuju1gedN9taUVO2a2/OTB20ogaOvooK2z6YtLFl0iEqETTV02FcUJ5GdGkZ0SRW5KLNkJsaRGRZAQEkTYOXe8HW1ws7XC9tRJzI1NCTjrj6yiCUVtO61VClrLm+mStJEfm0qQ4xliPbxJ9AwkMySWgrgsSlMLaSiWUJxaQHVGEeraRqaUndwYv8CNwXnujC0xIm1HUyulv7UFWWkxPYpWqguLqMgtJiUyET2t7avT7QDR1RL8a6+3iO9jX1lO7i54W4EnFu6L6ENJQaYYfWhvqkCtqqZZmk9VWToleSmU5KZRlJlOdmI8adGRRPl5cc7RBldbS+xOmXPK9ATRgZH0tw8y3XeBYdUow22DzPSM01BQQUpAGGFO7oQ5ehDu6kNqUBzZ0RnU59cw1jnE7bk1Hi9f5xe37vMndx7z87VHXOmZpjmngoacYmZ6+rmzvMLD9Q3627tQt6goSM1D/weAt1Oe3PsArzwrG/1tnMfCPTY/L9c2t/xEltuBJ0QfcjOTRIsnqyuguamQ6soMCnITyEiNIj0pmvSEGBKjwkmKDCPC3wuP09Y4WVtgY26OubEZUYGR9Lb1M6aeore1n4HWPqY1o1QKyZRnvQmwdcLrlB2nDU8S7OpDbW4lCyMXebr+gCdX73BnfpXV0fMMyuR0ljYw2thJT62CcWUvz67f49sHX/D4+j0G2nsZVPVRnlPGPt3tfWTbwaP9A6Dd7rqv7qvMz0D3Dz0t6nXgCVWtEH3ITounIDOB+qpcJA25lJenkpcbT0ZqDGnJMSTFRpIQHU5CZBihvp6cOW3NaUtzrE6cwNLUgsTwBIa7RkXwelr6GJD3MaUZoTAhDf/TTvjZOuJn74yLiSUBTp5IC2tYmVzgytQi4x0DqKobUVbUMSrvYHFggmuTC4wqelkZneNnN57x7b1veHLtCYNtgygblKTHpqGzw0t9FYLfXf8YqrY4PZq9WtvHhDft2o/e4m0J2AuFKsZVs5Ipy08jOyWatKRIkuJCiY8IIC7Ej4Qgf5JDAony8cbN2gpHc3NOHT+OpaklZkY2RIUn0drQRktdCzWF5bQ3NNFSUU1iQAABDg4EOjiI1i05IFRUpu1VdVSkZlKXnUdLSRkTqk5xjLnVySluXJxnoXcaZYmMsVY1HRW1KMsq6G9spDQ5GXVDIyOqHtIik9jzztbp9UNM6O2QJ/e7oL7L3zkx/uzd4Z/jpw3ei7iqvp4WpYVZSCoLKC9MJz8nmez0ONITo0iLCSNNqErDgokQwLOxwtHCHEtjIyyMLTh1woGs9CJGeycY1gzT1axkomeAsQ41qSEhhJ85Q7y3NwEOTgQ6uhHo6EpxQgo90mYWh8Z4tLLGVzdu8c2de/z60RPWJmfoliiR5lQ+D+QPjPP52jp355Zor65nafw8d65sUJZdsuPgOK+H4vXgCUPbvv689yM68mO8OfBimI7X3esPAjyhSs3PTqG6JJui3GQyM+NITo4kPiaE2NAAYoP9SQgNJtzHC2drS05bnMTS1BizY2acNLEjJ72YAfUwGoUGeW0jIx3d9LXI8XdwxM/OnmAnJ7xt7PCwsOb0MRNivfxYnTjPF+u3uL90hdWJaXE8YWVlDWqJjL6WDpTVTWIy5i/uPeOX97/gxsUVVLUtXDm/xK0rNyhML/hBVerrXvjHAC8n2oP9OwD+kwdPGMBaAE8QEZVFmRTkJpOWHkNCYgTR0cFEhgYQFRQghrtCvM9x2koQDmaYmxpjctwMC7PTFGaXM9IzzmDnAOrmdoZVGrrqpeJwYCHOLnhbW+NlbYuXtT3u5lZEn/NhqrOb8+pelJW1KMqrGWhWiH8vj08zOzrNkKqXz9Yf8OXNz/j69pesz1yjrbqN/rZ+Olu7iA6NReedq9rXW64979hX9nUgb7U9IuAU+16M77fVfmHb5ufl2uaWH9lyyzbei6pWcAinJ8eI2cJZGXHEJoYTGRNMaJg/oUG+hAX4ivAFnPPAxuIEp06YccLEGOOjpliaOVCSV8WQZgRNqxqVpJVJdZ9YlYa7uRN99hzuJ0/iaWWD72knztnY4+/oQkNhCX0tbUxrBlgYnmRtapbbC6s8WLshRhnUbWoWJ5cYUo7QVtWOJF9GXlwhkpImFDIVKYmZ6OwQaH/dS91u+74dQmrbnfum++yt9dDVfj38wnU2Py/XNrf8ni+3BO1DiImiiu+JiSBHx9eKidbSciY7ulgeHWftOzFx/oWY6BLFRHt55UsxIW1itKOXtKjkHyAmtn/JrwKz0xBjrx77rusebgfFXnfbnb+J108DvA8sJlKCf1dMCMNJuFIUnyxawKXh8e+JCaGtp6lT0JBdQa9EweXBiediYn4JVc37EhNvDt6BHQbT2Q6WN93n4bh/x55rP0nwdhQTQW8vJnqb5fiddnitmBDU6pcbt7m3uMLlkXGG5W0oyqtEMTEg76S9toX1mWV+cf+FmLggiIlWrpy/zM2VGxSk538QMfG7sOzk5vjd49/lbxdzHfbvEJb7yYH3ocREZ93rxYQQoZhQqRlv70JeViUKiqFWJTOaPlYmzjM3dp6hjl4+23j4Qkx8JYoJRZWCntZe2ptURIXEfBAx8bvg6H4AwfK797A9pvXjBk/o2/DyoV5mkAjbhMhDWnoi0TEhhIb6ERzgR5CvF6F+3qJbJPicBy5W1lgZmWFx/ARmhicwMjiBuZEtRZkVtNa2ISuXUVdUg7K+RRwhKdT9LAFOznicsiDA0YEE32BSAiIoT8miNksI6uehrKwTFevK2BQ3Ly1we26R0bYONPXCkK2jNOQVIi8vpyE/l+rsDIZVKnrl7Yyoh0gKS0H/IwTpX5bZq+X3fF1nh26H2537pvtOHtdB/8c86vt24Onp65Cbl0FqWhyJSdHExUQRGxlGfEQo8WEhxAYF4GZji5XxC/COnRTBsznpRG2JjP72IXrbetG0dDHdN0pfazuRXj4EOrvg7+BA9NmzBDi44mfnSpx3IO1VEpaGJ7m3uMo3dx7y60dPeXb9puivay2tpDa7iFGlmpWxaZ5evcZERwfdjU08u3mXB2u3uDZ/lZKscvR26Ivwpi/3XY/7GOCZm+5B76cKno6uFplZKSQkRhIZFUxISCDBgb4E+3kT7ONJkPc5XGxtsTQxw+y4KcaGZhw7cgJbC2caypsZ6hylW95Nh6ydcfUgjaVVOJqexO7YcTytrESn8DlLO5xNTuFkbI40v5Tbc8s8XL7GtelZhKpUUV7DYIsSjaSJniYFdy+v8c29J3xz9wkT7X30N3XwdP0hj68/ZHHqMtnJeR+lOt0Oyj0fweKG+Nv+uN0pr7N44hxfulpkZCYTGxdGWEQAIaGBBAf7E+jvTZC/F6EBPjjZ2nLSyARjQ2OOHzXhyBEzbE+50FglZ7hrjO7WblRSJZPdQ0iLysWog91RQ/ztT+Nra4uPrQOeVqdxMT1FckAYnbUyFOW1qKqFXv6dzPaNcH16jonOXubHpnh0/SbfPHjGLx78jPG2ITQSNee7ZxhuHxWr9qigWHQ/QlW3LXgfweIG+7mIQ3ps9zt+r8XF68DbfKDklHjCIwLwD/TCy+ccXj5nOXfODa9zbgT4nOW0jZ3EBS8AACAASURBVDWmx40wPHKMIwbHOWxgip2lK6217YxpJuhp6UYtUzEjtM0KynAyPoGziamYEexsZCRGITws7fG0cSTEzZP2Ghnnu4e4en6eq+cXuDW/yv3lDSY1Q4x1D3Dl0mUuDc7QWtpKVUolZQnlqKo76W7qpbu1l5yUj6NcN8tnq+VOk6Nsdc7bbsvLShU7vG933u8NeNv9SGGfi4sLzs7OODg44uLsxjmXM/i7euB92gWrYyYc3n+IQwePYHDImIO6R3G39qQuX4q8pp26QgnSsgbUzSpKM3IIcHbDy8aesxY2RLp5k+oTSkF0Ek1F5dTnFIiZJUKGyWibisWhEa5OnWdlbIIeWSMzmh7m+8fpb2yjKj2L3KhIVDVVTHSq6Fe0MaRS06vsIcpfUKnbd/Hb+pk/bBD/Y7hTqirKXhGF3xc4wnNvfl6ubW75yMutX8LzHy1UrR4eHpw9exZ3dw/OepwjwNObME8/Alw8sD5uhsGBwxw8cIRDB45zSNcQH8dAsUvhuGYaTUs3fYpusYe+rLSSQJczouPX2/o0ES5nSRBT06NICQxFVlDC/MAIDy6v8vWte/z83kO+vXufRyurKCuraSoqYaqrTxwveGX8PF119cwPDvLlzds8urrBk417rFxYJi06A/0detNv98wfat8BredTHXyo6wvXLS8r/2mAJzyMm5sbZ86cES2fk6MLHk4u+Luexc/pzCvgGYjgHdY7hp9zMB0SNSOd46ikHWiaO8W2XElyBlYGhjgameJidBJ/G0dCnTzwOGmFq5mF2K4blrfz9OoGV6cuMNc/hLpeSmdtPdL8IiY6NDy+usEvHz3jxuxlemUK1meW+PLGIx6v3eOru89YPr9CdHD8JxcSW8F16COAV1b+E7F4QgEK0Lm7u4sAujq74WrvgLeD64uq1pTD+wWLZ8Dhg0aI4DkF0V7fxXDnKG31bWiaO5jUDJIXk4D14aPYHTHExcgMP2sHPC3scRNmMjR/Dl9hXJI4pVJzcbmYVbIwOMrGhTnRQXxlaobPb93lF599wb3lDXEM4fXpNe7O32ame4Z++SAt1XKCvEJ3HCNuKzDex7bnY/htXcUZfAzwKkp+OhZPAG/T4jk6OONkY4+Xgyte9s6YHzmOwf7D7Bfg22+IwR4jQs9GoWnuE0VEh7SdgbZuLg2Mkh8Tj52BIRZ79uN83IRAeydcTc3FlCY3YfpMM3MSA0MYblNx/eI8G5eWuLu0xr3L1xht17A8eZHbq+usXFyiT95LVUYV9Zl1qCpUqOs0opDoUw6QEpP2yRTsduAZfhTwin+/wBNVqhCN2Py+iOcJBSUkKFqcNMfG0goHKxvsTM1xtrTD1syK4/sNObzHAIM9hhjuNcJA1xBf50CaK+S0ViiQFUqRlzehqm0mNzoRXzshQfM0nuZWxDh7UBWdTHtBBQMyBer6RqrSs8WvkCUsTDS3OjHFXP8gvbImrs9c4P7SCgsDE2In6pLEVLFdN9ImpDj1MKRU093cQVVuLX6uoehq7f/g/VTf1gpuB96hF7MNve013+b40rIfAXiCcBAeSigsS4tT2FpZc/qUtTgNupuNA3YnrDm27yiH9A9zWP+oCN7xvSZEeMfQ2zrAoGIIjVTNoLyX8Y5+ylKy8LN3wtfWHj8beyKc3Eh096YoPI6G7EJkBaViDFUIdwntuF8+eMLP7z3i7sKSqFhn+wYYaWtnWt1PZ70MeXk1V6dmxKyTp9dv8fjaHVamLyOvVRLhG/ejA+/gxwCvtPT33+LpvBg2SwDP1tpGBO+UyQlsTU7ianUaW1Mrju49IoJ3UNeAw7pHOaJ3jHCvaHpa+ulXDNJRr6Jf3s1oey9pYVFYC+030xN4nLQg0M6RRE8/Ys944WstzAHmSGNhqZiS/mT1OlfGp8XRM9uraiiKT2JYruTRlTW+unNPHGpitL2LLzbu8vnVOzy6cptHq3e5PHmZbnk/ydFZ6OzQm+ptLMXHOPaQ1vNBiT7kvUpKBPC2dwttOk0+ijvluyr2lap20+IJVa2djS3WFqcwPXoM86NGOJ2yw8bEkiN7DMSqdhO8Y3uMifaLp18xRJ98gLY6BT1yDYNtauL8gjDduw/bI0dFZ3CIkwvZoRH42TjgamqB7ZHjBDm5iW6TrjqpmEkiBPnHlJ2ikHhweY2fP3zMt48fMzcyylhHN0/W7vDs2iOeXn3MtfNXGWwbQilRkRKd8Y6+uq0b/h8Shs1rCyPTb65/qGVxsSAuPhF4zzOEX3nIV2HT0sLG/BQ2ZuZYHjfF4aQlpoeOcUT/MEf3GHJY/5goEI7uMSY1Kp3WmlaaKqQ0lNYjKatD2dBCang0bqcEMWDGaWNjQt09KEvLoK9FwXT3AP1yFXVFpeQnpdBUVslIeyfzQyNiV8OxtnbuzM5z59I89+aXaCqopq2ijprMTKT5OfQ3tzDVNUR7VTvlGXU0FDWTHp3Dx4hzfigYNq8rzDK0uf6hloWFgsXbfgDID2bxXgeeYOH0dHSxO2WFvbkVdmYWuFnbY37UBMO9Bhzdc5RDegJ8xzE+eILCtGIG2gfoU/SImSQ9bRomeobIS0jBx8FJTGMKcBRCWm6khITRUl5Fd5McRXU9Kmkjc6PjPLl+g2c37/D1nftcGZ9ifeYiv7j3gAmlilGFEkluidifdXagn5uXLoptv0crd7jQM0trZSd9ihGq8uvQ+wB9ID7Uy3/ddYX38rp972t7QYFg8X7PwBOqW6E9Z2FixikjUzFfTgDPwtAUwz0GHNHfBM8I08PmlGZVMNQxRHdLF4q6VjQtHQy2awg/54O1wVFcTM3wsLAQp9GM8fKmIF6YyimP/MQUKnPzmR+f5LP1m9yYWxSTMocVKmqyctFIpNyanefh8hpqaROXxyf4o7t3+WLjJl8Iw0usPmai4xIa6QgL42vUl8k+Sobw+3r5n/I6AnifbIbu11m8TfDMjhthduQYFobGOFlYY3b4OEf0DnFE/4ho8fZqGXBsvyklGWUieD2tapQSOT0KNQNKNcFuZzHfd4DTRwxxMzUhzMWVuuxcJLn5+Dm64HTyFPZmJ8mOS6S3RUGHRCZ+lTX19DS18nDlKl/fus+XN+/Sp2hjaXKSr+7e4en6LT6/+pDHy0+Z7VtjWHkRlbQXIbPkY/RJ/ZTAvK9719fJMDpuuq1l/cFV7Xc/drMNJ1g07efKSejRdOq4CVbHTbE1McfkoCFH9xzhsL7wNeSgviEmRy3ITy2kXaKksaSe+vwKWioltNU3ERcUhoeVLU6mZriYmRHq5kZNdq5YlY6p++hVdCEtr6Y4PQtZeaUI2ERXN+oGGUI77uHlFW5fnGN5aARZXiH9zUok+SWUpWXSUlaLul6FtKCZ0tR6uhpHGOgYJy+zEO0dGsbfPfNHqLbe972E4Tze9zV/93qbUL3J8p1V7Xc3fQU8YZtQnQrgWZucxN7MAkdzaxE8wz1HMNhzlMN7DDm05xg2JxyoK5Ew0jlMX4satbSNkY5eBju6SYmIwd/JFX9HJwKdnIj08KAsJY3uxlYGlV3Ia2Som9u4ODzKnZVVvrh1l2c3bosz2zy4fIW/ePYl1yan6ZFIqc/Oe97Ptaef1ekLYiTi6vQqQ/IJlDUDLI5vsL50l+qyWvG3f/dcP0K4tvvtQp+U7fa/j31vAtzmMR8IPG0sjc1EAeF8ykZUroZ7j4rgGew5JoJnaWqPpEwqgtfd2EGHMNFbRw9dLUr8XN2xMzbhjIUFXjY2YnUa6X6WEmFsEmFYr/pmmipqmRkc5smNW9xbWWNxdILOeiktJRX0yJrE/q0roxNoGmRsLCzw9IYgNG7z5a3H3F28x7D8PD2N0yyO32Dl4nVK8krYt+fdhwF7Hy/uQ15DmHPtQ15fuPbbfN7u6Feu/N1DbGnxtDl51Eisah1OWm1Z1VoY2YjgDakG6W5U0SWRM9rVR0eTnLOnHTE/fBhHISnzpDnR7meRZOUy0dZBU2E5YW5enLU5TWJoOG31DbTV1KOsldBUWkF3YwsPV6+JfSM2LsyjkTZxY3mJz27d5Is793ly7R535h4w3bnMWPtlepunUUg6iQ6LRE93e0X23TN/hJf4vu/1BwOemcExTh0zwdHcCqP9RzDQO8xBXeF7hP26R7A2O01TdSsCeBqZCo1MyUhnD53NcjwdnDDdvx+rQ4dwNjpOuJMTuSHh9NVJiXH35oypJS4nTmFvbEZObAJzw2OsTAmp5l3cubzG1/ce8839z7g5t8JgWxcr83OszM0yPzFDp0RFc1EbnVXDjLYt0SEZYbBrlKzU9A9uEd43TG9zvR8deN893CuWTRQR2troa+tgeuQY1sZCqOu5iDDcewQDfQMxviqIiAN6R0gIT0FeK0de2UhdXgVNZbWopK0Up2fjae+Im8UpHI4b4WtvT0ZYOPLKGnFkJkHFdjW3UZVXRFlWDvLqOgQRMarqQlVdx8roOA8WL4tCYqq9g8aCElFIlKRkUp2dR1uVFLWkg6qMBioyZPQqJuhXjRIXGf+TFhLfvbNXLPNPAjzhwQQRsUdbl5OGRpw+cQqhLSeoVwG8I4KCfSEiDPebkJdaxKBqkKG2Xroa2hhQdDHZO0x1QQn+Lu4EOLvgd/o0YWfOkBoUTHNpBcPtajqlraLKHerQcOXCJe6vXuObB4+5t7zK4vAov7z/iG/v3GO2p4+28koxYXNMpWGmd4D12QXuXV7nyvgymoYhOiXDrF28y9X5W6QlZfykhcTW4G0fytrqnNdte6XF9c6rO7bxvrv5KxZP2LYJnuCTE9Srq5WdKCKEjBIBPCGVSVCvR/YZUZBezHDnMP2tGlR1rfQ0qxjtHiQjLhEbI2NcTprjceqU2NkmzMWNRL8AsQthvzDHQ0Ut7Q2N3Fha5umN22zMLTLV3UdLWRVtlTUMydu4cWGWGXUPg3IF91dXRSHxxc27Yu/9jQs36ZGO099ygSszd1icXiUpLpG9+tsPmfrdc79iNX7M23R2iCi8zbO9M22vnPhu4L3w2e3R0cHooIEYhRDacpsW79Wq9pC+IflpxaIzuLdFTacwd4O8UwQvJSoGs4OHsDt2DBcTU/xs7ciPjKa7Xspgo1ycZumspT3eDs5U5RXQJWsWh4LtkjZRm1vApYFhPt+4JQqJiz1DDCpV3L26yrO7d/j81j2eXH3A+sxtJlSXGVUuoWmaoLWuHT8vb/R0358FeJuX9rpjhX/k1+17P9vf3/O+ws87r74beKLF00YA79iBw1i+IiKEgP8h3UMIGSWCiDDYe5zSnErR4vU2d6F+UdWOdveSFhOL6YGDWBw8iK3BYQJsbYh196CtqJS6tGy8LOw4c8IKm2PG+Dm5iupVEBGXBkeY6h7gqzsP+fL2A37+4Cnzw1PiNOrL87NcmZtnZnCCtqo2GvJa6JPOMKJYoFM6zGDXCBGhoR/4Jb89RD8J8P7pv/B3/+Ef+Jc3wPF74G0V8tLW0UZwQAqhI9NjRmJ2ibXxyS39c6aGFhSkFokRiaZSCZL3EJHoljaJ2SWPV1bFzJLLg8NIcwu2jEjIClspS2tA3TTKgGqcvIyCTyQk3p+F+b22eP/8f/E/fbFCX00i7iZ72Rd+gf/0bzuT9xbgaaOrrcMJIxNOWwjZJadegPc8IrHpGLYytaemqJ7hjiEEC9fVoGD4B0YkFkfGubtwmT97+oyrE88jEpKc/C0jEv3NY8gre5kbvca1hdtUFlf/wQmJrUF9fz7KV7H6579Q4aK3aeH18er/u/dn8cQAv/Zz8MyOG4vgnf7OMSy4Tl7GYAXwGspljHaN0NPUKbbpht9DRKL5RURCGINOGHXzdRGJ8fZLDLReYnnqDquXNn7yEYmtIdsE4eVyc5LANz1eOO5NPv/9aQWmmwP16NnT/Ot/fpPT+N7Vt6pqN8HT0dbG6IghticsxL4RxgeOclT02Qkp6kfF4L+5kfV3EQnBMSxEJITZp39IRKKxpByNrJkHV67y68efc/PSIj1NLVtGJCY7lhhpW0TTOElrrYqI4PAdh1V4m5fxpsd++DbbS6je6De9Q6x2Z4L+jf90PpQ9L4SRzvFCHvzXnc8Sjnhr8I4dMsBKSAA4YYkA3hEBPD0DEbwDekexMrOnqaqFIdUAGln78+B/Z+8PikiMqNTcEXr4vxqRUG4dkeiqGWWifZku6RjDmnGy0zI+iZB4W/De9vg3gu1VpfxBwPtvPKsyfzHusTb7oub4hzdo3705eC+GkN+jp8/RA4c4ZWSGu52T6D45LChYnUPs1z4kqljbk45iKGxQNYBaqqRTImdA2UWvQomvkzOWhw9zcs9e7A8f4pyZGfHu54hz98TzpBXnzG1wP2WNq4UlqWGR3Ll8hdtLq4x19rIxv8J9YeT0gQnRCV2cnk9lWTW1FbU01zahrGmjt2GAkeYZLqjXmNQssjJ7jbrqOlEYvfWLevWlvcP624L0tsd/jOfZ0nb96//N3z5dYbg5nwhnI3Ga1ee/RZuDpyPIys4mOzuLjJQEMob/hNdVvG9s8YSLC4VjeMhAzDyxNbUQY7CHdA5+B55g8ezMnWiueR6D3QRP6BDd09iCp7UtzkbGInSOhw8R5eRIWUwsUS5nsDlogKvxSbxs7fGwsSXC01t0Fq/OzNFSWY+kuApFbRPq5g6GOwZorG6mp3uaJqmGhell1i6sMds3y2jrGJeH19iYvcftq/eRSmSfxOJ9DDDe5z22hGyLjf/690sUBfri6+uLr5cdRzfbd9r7MXfzEbd7e3ni7uJG/pX/zOsM4BuDp6evj9DGEyzeiSPHxfjssb2HOah9QAz+H9A5LLbxHCxdaamVi8H/rgal2MabUHWjrpXga2WHr/kpzhob43DwAMHWVmT4+RPq6ITTcWOxZ7+7pRWe9vYEuLqyODbJ6sV5euUqzg9McGNpnTtXbrE6u0qLpIvOzkVGh67T3TbGrcs3uDm7xtXxJdbGV7g6c4176w9RtCp37Pn0Pl/gj/VaWzC246Z/+XeduOo/b2tq74tm/h9fh9n3L/XG4AkFqqeri7uTi2jxhDGGDfccEsET2niCw1gIkbnYeqCQKBlsH6BT0oZaIud8Rw+j0hYKQyIpCAoh29eXaAd7vEyNCbK1wdvSCltDQxxMTXE0NcP2+HHO2tqK8da7q+sMqnpZvbTMZ7ce8+TWU67OrZORVElHxy0mxp6yfOken996yu2FZa5NX2BxeEocukJa00JCXCp6+h9+kuAfK3Cbv/v7aOy05d/4Lwsx7HvRdtR36+Lfv4nn+MVl3wg8HT1dsbrav28fRTl5hPr4ixZPAE+oag30j3BQ74ho8c44eKJsUL0AT4GmQcH5Ng3j9c00JKZRF5tIXXwcZRFhZPn7UBwdSUpgAOYHD2J97BgOJiZYHT2K92kHEbw7y9eZ6Bnm2vwqd9ZuMzu5SHfbAPGRJcTE9FCYP8GgZpEbl9d5vLbClYlhOurqUNRKGe4dIy+nFF3dXfCE2ck3IdtquRNm39//33labvpiBFAdTMs+4zffP+i1W3YGT2xYP//RQhpUTVExOXEJuFnZYKh/EAPdgxgIqlb3iDgwoqeLH0qpioH2ftrr5XQ1yJnp6GW4vpHqmHiqIiKQxsdRGx1JQaAftUnxyArysTc15bC+HpYmwrSdgq/QHEWdBJW0iZp8IS0qF6mQTtWoQt7QSUFWE63NV5gce8zdja+5trCGukmGurGB1upqZsemuHX1NlVl9ejq7IJneMzw/YL3L3+F2v3FAJTa+4hZ+MfXtue2om9L8F7mbglhHx309PaJ4bJD+vpMqtV0VFeJE8kd0zvAEd2DHNQWrN5RhBQoZxt3mmtbGe4aQiWV0yGVi2PLdVXXkuDuTpSdLaUBvkhjIkg8bUuEvTVVaam4WFtxaN8eTp48zrFjh7A8acbyhVmuzy+gaWpkXK1i7eJF0fLNDM3TVK3m6vI9ri3f5evPf8Fndz/j68++4sLIFC01Mq4vXuXxrUcopHL0dd5lhM639JO9g/LdyvJ8qG1bvfwfsu3f/nGemH0vwoL67qj/6i3q2df58V52/hUs3XP4hF5KB3V1GFa20llTLs50YyKMbaK1HwMdITHAQFS0MSHx1Jc10K3QiOBVZRdQEBdPbXoqCR5n8DhqQPBJM0qC/Mjz9yU7wIe6zHQivc9hZnAIk8MHOLZvP+dOn+HR9QdcvbhCn6KTlZkZvrx/j8/vPGBxchFFQwc3hSnWN+7x+aMv+MXPfsUff/MnTA5NUpxdzNriGrev3aZH1cP7TAn6UGB86Ov+EMi2Ovc3T0oxeaFodUzK+Oxt6tmdwXuhWLS12KuvgzD+hryyGGleOl6WpzAV8u60DnB873FxUJ2zDl7kpxbQVN1IX5uahuIKor198bO1IsnTnRhnRzyNj+N08ABBVqfI8PWmMiEWSXY6ZSnxpIcFkOLnjaOhMQleofzs1s+4fmmDka4R1uaWeXb/AQ83bjI7NoO8rpX5mQWW56+wcHGRy3PLjPSNUllSRXJsMu2tKjoVXRRkF6Cn/byN+qFf7u/z9beC5923/TN/qXIRexMKhklwHP+fby5oxdtuWdW+tHgvx7QTpoM8oKtFv1xCe2U+AaftMNU7wlFtA47oHBXbeO5256gurEEj76IkI4/0iGiyo6IpjYumPDpcFBORzk44HTPEycgIFxMTAuztqE5JRF1Vwvp4P18vTPPV7HnGG5pRljWhqu+iOKtSDPbLautoqKigIjuPpNAYFLIWlM1KWqStyBsVNNRIiY9KIDQgDElNAwM9QxTkCP1ld8F7d8i2OPPf/oFLEXtfJF/o4dz+5691FG9x9uvA00FXzFZ9UX8LSZ+6WmK8c6+OFi0V+ZSnROFra4ORngGG2kc5pHMYowOm+J8JQlrRxMP1B5RlFZIcGkFerDA+XSayjBTyQoIJd3XDycQUd0tL3E+dIicinPqMVMZkdXy7Osdfr8/wNxsX+HbpErfPz3Nn5RaqFg0jg+OsLFzm6sIiM31D4sQoSxfmuHxpnoULc0yPTjI1MkFaYjrRYTFMjE6xOL8s+vF0tPW2bVj/Pluq9/XbXgfAO23/zSOKjV6oZO39pF77f59f5l/+kT9ZaKRi/E/5px0uvIXF030B3ovGteCn0dESZ2zZr6NFZWYyxfGR+NrYcWK/CYe0DnNE7zi2pk4UpJfR3znGX/3x37CxdJ2itFzy4lIoT0knJzic/MgY0kLCCHR1FR3EUd5eVKYk01tTzfXBAf58Y5W/uT7I398f59/dvMi366s8XFunR6nhysIyD27e4vHGbeYGxlFUSLi9ssaD9RvcvbbBvfWbzE3PkBqfRF5mHpemZ7l5/Q7tii50df4w0tx3eNfvbfe//v0Ifi8cx1paethl9TPdW0ecwxH2mAbSdO9/29ECbgGe3vfBE6ZZF9p52lqkh4eR7OdPsl8oZ+08OKBjwCG9Y7id9kXZ0s/Na0/45tn/wMWxRaoLakkMSSDKK4zsiGRyo5PxsXdCiE44mRrjZGJEeoA/mspqLso7+OXqGn++NsRf3xzkr+/P8/nyJW7NzTLV18/65ct8df8BX919IA7531XbxGfXb/Bk4wYPr6/z5MYdFidnyE5MIzc1m4ULC2ys3WKwdwTtjzBz4fuyTD/kOu+NrB0u9C//Yw9nvwNv00AdwiFzlG//4c3U7VuBd1BXj3jfYPxsnBls1nDzyl0sTOzZq2OIn1cs05NXubXxMxolPYQHpDHYNUNjlYrBjvMsTa7zN7/6W2RFVTiZGHPGzJg4D2dW+/tZ7h6kLa+KG8MX+fmVWX69PssXSxcZkEiR5hSKVjLW15t4fx/SQ0NI9g8l9pwfpUnJVKZlUJubh6KqVqx+I7wCiQmMQN3ayWDnAJVFVej+gVS1O/Dy/nb/1y+psXwxb4a2DocdklE/+F/4b29xhy3AE6raV3xYmyERHV32aelTkVpESUweF7vP8x/+5j8SG5HOPn0T/PySmJ27z8z5O4yPrTM8sMqzh3/B//zv/4E//9V/5ld/9L/yH//2H/n2wZeEuTrjbnKU6ZZ6ns7NcnP0Eq3ZEtry5CxoznNtdJHemk5qksq53H+BK4OTtBYVUJESQ35MGHHe3gQ5OOFjaYmftS0eQi8181OcO2WLr4MrZ6wccThhi4ulExbHLD7Z8P8/xHq9y7lv8d5/8KH/39894uLoBJc/+1v+nzczcr91z++BJ/i8XjqQXwKoq63LXu09KCpaaStWsDp1jV9985do1OMcO25HWGQOfYMrtHfM0d9/lbGRW9y//ee0ymZITmqjpWmRx7f/lJneKQqjwvns0ihfzU/ybHaGW2MX6a/ppjxORlV6N5VpPRRGtdKcpebB+Xv80cotbo6PsTasYa5HybiqlYvdGlYGB7kyNMwlTTcTbSr6GxW0ltVSlV1CUWo+JemFRPlFobdb1f7WS//dP/7pn/6JX//61wwODqJWq3939wf5+3vgaYmuB8H98NuxPaGzz/49+9C0D1CeL+X++rf85Z/+71y79gAPr0ASU/JpbB5iePAaG1d/gaRqlIiQBs661+Pj38E571ZCA6SEn01kqbuXby5P88erk3yz3Mdn84P0S9rIi5CTGT9MTtIU+bH9tOapWR+a4WfzF/n80jAPL3SzMqJgslPJ+Z4RZgdHmR0a49LQBBeHJpnun2Kib5KpgRlmRmY5P3yJlnolulo/rcF4figJv/nNb/jmm2/QaDSEhoayd+/L8rl58+YPvfwbnb8FeIIbRQDvJXxCHp6unjZaOrosLd8jK6+V9vYVLkw+Qa4cxN7tDMlZ+ag6JpgevsFf/vL/oLq0l1Mnk7Cxl+Hg3ourZx+O9rUUJzfzbHGNLy8O8Wdrw/xqrZUvVpq53N9DXngHSdHjpCbOkhk1QG9tH18tzfCnV8f45eV+/v/2zjM2juxa0CKVRUmUmIOYc2jGbrIpvgP7rQAAHMFJREFUhmbOpCjm0JGdc1UnNjMpaSSNpBmNJs94xmOP39p+O/YazwG7xsPueh9s2HAA7B/2DxuwAduAAQM2nvEMA8/Pz9+iWqLCSFpLo9aMxqsCGlUqVZ3LuuerU/eee+65X7rq453zLq6EQ2yLZyKL1l05d4VXnn+NV154i4tnX+S5i69z+cIbXDr/Glcvv4nfu05sZK3WG+6h25sRH9PjB9LsbRf94Q9/4Gtf+xqhUAilUsnevfceQkxLS+PPf/7zbXc+vsO7wbsZIh0b6Q3G7JL2MdfHa2OPMT4uoGhcpLHBSavSRX3jabJLaugamsJi2+DVa/+N9z7zz6yFr1FZOcmJPAM9p96kd/hNcjI1hC0X+fLLr/O15zb4ny8u8d9fNvH1t9x87soF1F1hulu36Ou+wkBzmHOus/yfT73Ct955hn95Y4v/8XKQzz/rYUkzj25ggbmBSUwzBpbdy1y78AqvXPoEL11+m8vnX+P5Z9/k9Zc/w3LwzA3wbjUbPkj76Um652FxCIfDD+TH3NzcfFjRH/j6u8GTxt9uwCd5/KWftKZDzK4j7I7NRF6npaN9lSbFCrJSB6kZHSTn1tPcM43GsMpK6EXeeu093nz9PVrbdeSVajF7voYY/Beqy+2c97/Au2e3+WTQyDviFF84N81XXzTx2Qtb6LsC9LVv0NfzLP3NIZ7xnON/f/JFvvnmNv/r2hJfvmjnH7aMzDTUMFbXhe2UhtPN/Yw29SNqvbzx7FtcO/c6z599lWuX3uTac2/idi6x6wMt4/nkgvqw2v7rX//K6dP/77knkhX8zW9+87CiP/D1DwDeHmJ27WPvnkR27UqjpkpNbY2bBvkahflW8kpOU1w3gGpIi968zeVnP8sLz73L66/+I01tajLzZ5nWfY5Fyz9RU2Zm1bbBC14bVwzDvGjs4/PrY/zX83O8veZH2+6hp22ZzvZt+psDbDs3+cpLz/D1qwG+fNbGZ0JTfHZNg7FZjlbZx3lLkJdD5zH1zjFa38emdZ2XNl7ipXOv8srlT3DlwkvYLF5iPuZZ2z+wdm+7UWrXScuv3s9yz8/P33b14z+8G7ybn1opn/F1iyft98QeJmZXAidParl27ZuEQl+ltMzGhPoM/u3X6Ju0Mm/YwGQ8S3+3jtWVl5E3aEhImya7SCA7x05RxgRbjlWuODRsTjTzluM0721M85n1SV72O1G3OehVhelQbdLf7GfFGOK/nAvx3raFf9oy8WnfKd4NTuLpaKQrtQh71xTqxiGaksvpym9E1z7DZfEC1zaucfXMNS5sXcZksN1orz65Fux+MOycjwYGf/zjH5HL5fcF7zvf+U40inlgGfcBT+rRStBJ1u56Qu3YmFhiYw9SU9vPK6//M1evfZPyKgudIx7MwfOc0grUN82SeLyBssJevPbnyc4aYf+hcY4c05N0fJ7yE2O8uHKOT6072Bhr4JOuKb6wpeHt5SnOLKqZaFykty1Ed+cW7XIH4oKXN5ZdfGpJw+eXtfxDYJy3vcN80mvEKG9H6J2nN6sOVYqM/txGhktULM14uBq6xFn/GVbEVWan1cTGfrzHah9Ym/e58Ne//jW1tbX3hU6hUNznzsd3+h7g7fRqJeik3/XZZTFS2y92L/WKXl569Su8/Oo3qVO4KaufxLnyHB0jBhJTFCTFN1JfPsb06BIVpVoOx82xf+88acdmGFF5ePfCFf7xGQ+rI3Vc1Q7yCWGSN8ILhObnGKjT0dUSorNtkx6lgOWUhQsOLZ8ILPC2MM1L5k7e8g5yRT3KfIUCT/cMk+UqNiedXNKFma0ZRNcywRXhHGc8a6x4w+jV+o8od0r0LOyjqP8HP/gBGRkZN6E7ePAgCwsL7KwlJ1nVd99991GK+ED33gM8qcKuw7cDnhQEGonZjzmIrKqP8PI7rK5/laoqkZSsPib1KyRkKNi9u4SkuAbqikcY7rTTLLdxeP8EcftmyE6cwTyxwbsXzvOFC07E7jI2RlWc1w7wnLiAcXScjho9zQ1+2pRrDJwMoe7VsbRwmucd41zS9bE+Xs1rrl5esc0yUVyFs2eK/lw565MOrlk28XTrGC5pY9u4xHlpWfjQGmad4SOZV7vzmXzQ/QfS3t+46Utf+hKHDh26CZ3kLvnud78buevZZ5+NnE9NTeXf//1+s1//RgGP8N93g7czTzLyib3Vq42NiWPXriSyTvRQV2tHVhEgL8tLetYUI1OrtPXY2Lu/ksQDdeQlNKAoG6SyYIzU45NkJuqpyNLj057nk9vrfP6cGUdbAd6OBnwjbYQ0o5xS9dFWa6ZFGUTVtMFgyzLz3TqsQ90EJ1rxD8uxtWfxvKWD984KWFq6sHSNc6q8DVf3PNbWKcR+A6Ol7SzNOdmwBlj1BNDOzH4kKSweFLid6x5Bh/e89dKlS3dYNWmV81/+8pd3XGs0GllfX7/j3If1j7vB233LnXK9nbeXmMiiwMeJ2ZVLXvY0uVlmUo7ZyUgSSU6aJ6dwkrZOOwcO1JB0SE5WfD0FqQ2kHJWTkzFJevwUdQWLrNuu8MZGiE9v6DCdzGGxsQpjhxJtfyct1e201Nk52bCEqlECb4WFfhP63k4svfVYO8uZrD7CxlwD7yxbWZ6YxdQ1znhNF5tzXpZGLayOOxkubsM3YWTd6mFDFNHNzkQia3YU/KTuo6VwyQEsAXX7cw4PD/Nv/3Z3UhPp2t/97nfRKvqh5NwN3s1e7c4nV+poSJ7uo+zalU1u3ixZJywkxls5fthMRrKR1JRBCoraSTheQXH2AJmJPaQcayE3u4/EhH6S4vpoKVdzOXSVa0sCL4UWmKxPY6ymgHlVB+1VHdSXnkZZ66G+PszJhjW6mgJM99mwjE3jHFXhGqxB3ZSOo7eCVwUjz9ntaFU9zCoHeHvlGm8En8fWpac7T4VvSs+2R8tGcBaTZuLOMK8ndLTiobR2n4t///vf09nZeQd0giDwn//5kHHp95EfzdN/A7ydBrIEXxy7Yk6QkzdFRuYiCfEGjh3WkJlsQKkwU13dTmNDFx0tJpKO9nD0SAtNJxdJTR3kyN4GpjqtXFu7wrOCjbC6F+WJQ3SX5dAla6IyS0VV8TyN9T5ktUEalKt0tAQZVpmwnNYTmJ8gNNeBeFqOtrWEZxZnuOZxom5uQdc8xNqUG7VilM7Mk3ScaME+PI57QYVDJ0c30cP+j4ED+VGV+rOf/YySkpKb0O3Zs4dXX331UcU+tvsfEDwJwAPs2p1OZvYIyanzHDkyy+G4CSrKnKjVZxkamUWhaKEor4fjca2kJnZQXzdHcmIXGfFNhPQrvLR6jnNOI/MqGbKE/bTk51GdIaMgtQVZ6QL1coHyGpG6xiXa25bobFxkukuNfXySTdM0F5yTTJ8sQhzv5nmXGX2jEnNjH4a6ARoP5NKeWIO6ZoyVWQ1hfSf2eRlzA8rIJKXbPz0f9XG0tSlFliQmSg7+64YiPj6er3/969EuJqry7gOe1Kt936B6zD52xSSSkKzicPwwB+NOsW9fD7JKKyOjAq1t3TQ3t1Fe2EtafAdx+2pJT1aSeLSZrvoprvi3eSEYYlk7SUtuCuXH4ig9foK0AwVkp7Qhq9RSq3BRVuehSuGjpXWJFrmFtuoJBhv72LCaeSFkQ9+nQN/byDnTPMG+HvoT8+hPKqPneAmD6XU42+bYWJDAa8W1UM5Cv4KDN1xCO4r5qPfR1OCnP/1p9u27Fdqfl5fHj3/842gW8Vhk3Q1eBLj3gSe1+2Kkz+1R9sfVsntfG7v39bJvXze5eQu0qRZRKlXUVMkpyeog9XAriYca6W4xUHyiH92Qied8Pl4IerAOd1CVdJjKpDRyDudyJLaQzJQuyit1VNRZKa6zUqHwIG8UUdY7kZdO0yYbZNUqcsHvJqifYLxVRmB2iOWhXvqTs+lJzGcwsxxdfR/PqEWesRgI6JtwqIuY6a/mwBPWrouGJqXx15WVlZtWTnqZTp48yW9/+9toiH/sMu4BngSY9LvN4t0E7wj7D1WxK1ZJzJ5uUlJnkVW6kFVNUVPTgqy8geKMLtLjVKQdVrIw6uNk5TTCvJtLbhPP+8zMtNYiz0qjNruUgqRqjuypJDN9kOJyHUXVi+RXL1KucFFZ60Ze56WmRENXg5qAeYltwcumx8hoaxW2sQ5ecGjx9vRjU/UTGJ3msi3EFc8am3YNgqkBkzafnpYcDtzI7/dRW7qd8h9Vq3/605+Ympq6AzpprFUK6Py4bPcAb8favQ+8WCk+7yjJ6SrijvYSnzBNWoaRwkIHVTI19bXdlBbIyU9Skbqvmez4Jloqh+ism2LT6ueseYZlzQgDdYW0y8poljWRnVjHgd3VpKcPU1Sup7DSQF6lntJ6O+U1buTyAJXFWoY7HPit62wIAdY9Fia7GxhrrWJVM8JFm4mLdg8X3QIXhCXOicssu9WYDVVMTCRRnL/7I3GnPC4ApAgSKTfdDsTS/sMMZ4rWc90NXsSdsgPfTq9W2kvjncc4kTPAsaQxjh5fIDnVStYJK40Ndvp65mlW9CLL7qUitY+xFh0NxUomOqZ5ximwaRhnRX+KCVUtbTXlVBVVk3q8mj2xVSQmSe4YHYVli+SW6SmUWSmvcqNQBKgs1THa6yHg2ibsFtn0udCMdKGS5aLuU7Bi0nBe9HEu4I8soidlMFgSNVgstai1WcjKD7L3DhfR7c/0+I6jpaDb5fzoRz8iOzv7JnRS5PCHFTF8+98RjeP7gHcvhUgN2GQys4c5HH+aA4dmSU6zk5PtQNloZ2xUj2HOiO6Ul66qCSZaT6MoKEA3NMq6ycCWcYZlw2lm+hpRKSqpragjKaGS3bFVHI3vITdPQ0HRInklRvJKzOQXmZHJHFRV6hgfEQh5tln2+Nj0ebHOjNNeXcR4exXBxXnOiAJrgpd1Mci6f5mQqMFuq0eny6G69MDN5NC3W4nHfRwN5dwuQ4ogPnLkyE3okpOT+da3vnX7JR+r4wcET7KAByPxeClpUo92nINxatJPOMnMstDQYEY9b+HC1lk8ugBjzeNMtHcxdLIEy0QnvrlThDXjiAvD6Mc76WqtRVZZRVJSBbv3VBF3uJPsrAXycw0UFFnIK7KQk6unuMhAbY0O9WyQlcAZ1kQ/G4KAf3GRIaWc8fZqAoY5Nr0eVtwuwi4hkihItM1gM9UyP55M+YnYj6RzEU0Krl27xu7dUlPnukEoLy/n5z//eTSL+NBl3Q3ePXuAseyKkd62TJKS+zl4YIQjR+ZJz7KRkWlGqbQxOanDbjbgNjjQjcyjG+pnqrsS0/hJAppTOMYH0Q61oJ3oZLD3JHV1clJSZezZV82huA4yM2cjsEmWrqjUQUGhiZJiHYo6LYva5Ugai7Dby4YosOkVmR/oY6SlGkErrfAjsO7xEna4CDmcCOYJHPp6JgdSKUre9bEF7y9/+QsOh+MmcBJ4vb29/Ou/3kgZ8aHjEr0C7wJvJ/5uJxzq+lsm9XKlQNB0ko63kJ40RG62hoSkBXJOeKmucjI372RoSIVmegLb/CKCTotlsgfTmArnzACm031c3RQ5t+xkdmyQFmU76el17N1Xw8HDHSSkSXM39BRVOSmvEyiTOaitsdJQq8Fp3iIsrLEi+ljxelgTfSw5nAw2N+Kcn2Nb9LEpCKx5bKyKRkT7KPpZBYPd2WQkxD72Nl701HFLkjRBp6+v7w7obDYb//EfH2AS6y2xT8zRXeDtvhH4eTd4UnRKCsnHleRkDFFcqCUheZa8bF/EpaLRCJit8zgtOgSjGb/RiH1mEPNYJ4ujnZjG+7m06uFMyIlhfpou1QCZGQ3s3lPDwSNdJGdNk1u2SKncQ7UyhKxWoKrairxWg9tyhiXvKqs+PxsBfwQ8r9HCqKoV29wc274QZ/xBVjx2Vn2LuK3DmLQqTg1WciJ1P3tuRtzcq+366Oeirc1f/OIXVFRU3IROip27evVqtIv5SOU9JHhJpCY2kpc1SEW5jqSUaZISTBQVmpid82CyzOG2GSLgBUyLWKcHUPedRDvUhX32NB7dFIvTo2impzk1NEtxUTf7DjZxNHGErCIDhTI7lY1+6lvWkDeFqZe7aJQv4nddjFi8ZUFk1Sey7BVw6PSMtrfj1Rs5G1xh2eVlTfSyteQk6J1Fv6BCM6OiVVnw2N0p0dTgt7/9bVJSUm5Cd/jwYb7yla9Es4gnQtZDgCcFFCaQdLyWzNR28vNOc+TYIAnH9eRk6ejv16PTz+Cy6hBNZkIW4w3wmjGODRCyLCIaNRhmx5kYGqFFOUhp8QCHDqtISJ0gr8RCocyNTBmmQbVFa+cZmluCKBVGBOcFgt41lgSBFZ/AejBA0OliamAA48w8G+IKG75llj0C6wEX62EzK0EdZv0ozQ0l98yMsNNQj8Y+Wpr83Oc+x4EDt/I1Z2Vl8cMf/jBa4p8oOQ8E3vUF2A4Qs+sY6Sm1FOZ3UVs3R1rWKRKOa8jK1NHRoWZq+hQOswbBvIjPqMY00Y1huAPn7CTLDjseox6zZp7B7gGqKzsoLhgi/lg/6VlqSio9VNSHqG/b4mT3BXqHn6ezewt53SI24xYBCTyfyJLgJix48dsdzI2eQjs+y4onzJq4StjjZz0ksLXq4Zltkc1VDzOTw1GzeI9Tc9vb28TE3HLaS/MgPszpho/z2e4l+x7g3ZhjccfAulQhkh/vMBlpVVSW96HqMJBfOkF8/CxZGXr6e81Mz5zGYpgl6DDhM85hGGtncbibkHGRZacbr8mIVadloGeYRsUQhQVDJKWMkltooawqQKV8mbqWbVp7r9Az/AJdvWeokmkwaFbwe1ZYEkVCgpugx41oszM/fhqrZpGwO8yqBJ4QYsnnZWNVZGvDx7kzy5gWtVFbNvReFfio56RhLmkOxO2Wd2JiAmlY7O95eyDwrls8KRj0EBnp5eTmKCir7CGrqJ/kZHUEvHaVnqmpCeymBQTTAitOLfbZPnSD3QTNloiFcptN2BYXmRibobX5NBnp3aRnTFBZJVIrX6VOuYG8/Tyt/VfpHLxKa/sGZSVzqOfD+DyrBEWBoOgmKLgJuN34HHaCboGwN0zIE8bv9hMQPGysBdnaWmJ7ew2D3nDnuPM93UUP1sGINgjSgH5zc/Md0Emz/qUAgL/37YHAi42M00rgHSQ1pYj09HKy8xtIzWkhOWWOExl6OttNaDQ63HYdPpuaswEzQdM4xpF+AmYLot2By2rCbjahVZtob58mJUVFfsEC9YowCuUm8pPbKDoucrL3OToGXkDZskZx8RzzsyFEzyoBr5eA4Lr+87oJ+70siT4CngB+dwCf24dPcqushdjcWmZrex29XgoDv+V8vd2yPOxxNGH4yU9+Qn5+/k3opJn877zzTjSLeKJlPRB4kUiVmD3ExOwjMfEEJ7LKkdWpyC3rIDFpioxULb3dTkxSckSbDr9djc88gVs9hH3iFGG7A7/bheCyYTUvYly00tg4QmJSC0XFGuQNyyibz9DQcpaalvPI2y/RNfwyyuZ1ysrUzEwFETyr+Lxe/F4nfsEZ2fu8NvyS9RP8BLxBRK8fURo+W5fAW2Frewu93nxjnPnBrNoOjI9Ta1KmJilYc6eshIQEvvGNbzzOIp842XeBJ+XG2/HhSfvrlSO18XZHwEtOziLjRDEVtS2Uy/tJTZ0lPUVDV4cdg94UsXhe8zQh+zQhywTuGalj4cTvceLzOjCb9Oj1JsrKWjmWoKSgSI28MUxT6xnkTZuUytepaj5Pz+hrNDStU1Q0z/iYEAFP8HgQPY5b8AkSeBKIAj5vANHrQxQ9EfA2nlDwXn/9daSw9B3oiouL+elPf/rEgfG4/6C7wLsF2w500l4audjLrpj9pKfnk5Kcy4mcSsqqesnMGCcrfZ4ulQu9xo3XaUFwzHH5jJsLqw68OjVBhy0CnU9wYTZbmZkzk53fTHxiM4WlOuRNSzQ0b1Ai85FdKlKh2KJ36DUUjavk5U0zOOBA8KzhdbnxuR0EPJKvzoXPY0Nw2/C67HhcTgSPC6/guG7xtlfY2Nz4wJ/aaFe8NOFGFMWbwEngtbe3I03Q+f9xuwu8nTfx1v4GdLv2E7vrEFmZpWSkFZOaUkpJaReF+aNkpY3S3mRHNxfCabXhcsyy5F/A55jHtajH77QSEp2IXg82m8jwqJG0rDaOJqooLNdTrfBRowhxIt9MYqaR8upVuvqu0ahcIy9vhp5uC173OoK0roXHTdDtIuhy4pfWLXPbEdxWvG4zHrcZt9vExmaYza1VVldX0EUmdEvPcPuL9LePowmDNLVwZGTkjr/BYDB8aLnoovks0ZL1gOBJnwbJnXKQvJxK8nNlZGfLqJMPUlYyFAld72yxsKhdwmV34HbO4RfnEBwLeC0mgm47IdGBzytgMQu0qaY5ltjIsZQu8krUlMlsFJSaOJowzpHEWYor/LR3XaGpaZWCgjlUKgMOWxjRLUZ6sxJ0vki70YnouQGey4zLtRgBb/MGeFJouE6n53qv/G/Ddjuc0argX/3qV3dkaZJ8dRcvXoyW+I+tnAcAT2rfSeBJvdr9lJfW09zUjap9iI6ucQoL2ijO76Wv04RJ78ftsOJxLeDzLiA6NfgcVpYEZwQ80eNFr3NQKevh0JFa4pPaycgdJ7dwIZKRYN+hHg4eHSW/xEGz6gzKpjDFxfM0KefRawXcdg+Cw4Hf6YiAJ312dyyex2nG4TDgdpuRwNvYlBZSXo70tO8I47+H5Xtc2vve975Henr6TUsnpZP44he/+LiK+1jJfUDwJHfEdatXUV7H6PA0GrWRsfFZ6mrbKSpQIittY2pcg8dpwS/qCfp1hAQzYdHDks9FyOdAcHuYmtSRnlFL3NFajia0kJDSQ0raIMcSeti7v5l9h7vIKtAiVwZpaPRTXqGmUTHDwrwTp92Nw2pBdNrxO12ILkekzSdZPQk8m02Px21hc3OFtfUVlpbCqNX6u/I5327ZpOPHsUmA3Z63RALw+9///uMo6mMp865af79SrlsLKUXZvkivtqy0mlOjUxGXiFqrRaFoJi0ll/TUAhoVJ7FbDfjERQI+I0HRypLPQ8jnJOR34nG7GB6aJf5YKfHH6zie2MKxxDaOJaiIO6Jkz7469sU1k5k3TY3ciaLBExm5aFLOodN68bgE7BYzXocd0elEdDoQpU6F247bYcZq1eFxW9ncWGV1bYVQKMzCgu5DB+/ChQt3DH9JCRGlT+7T7VYNPDB4Us82NnYvZWUypiZnMZvNmEx6jKZFJsYnKSspo76uFoNhjoDfxlLQTsjvYCngJRz0EPA5CPj8qNqGOHK0mEOHZRyJb+Dw0QYOxdWSkNBAVnYHew9URz7B5VU65AorCoWe+rrT6HVePG4Rh036lDtx2x2IThdepwOv04bLbsJk1OJx21lfW2ZlZZlgcIm5OU3kpbn7hbrV5rtVHY92JOUikToNt5cldSrulbfk0Ur6+N/9AODtKEhq68WQk5PDwMAQOp02omi73YTTYWFudjLyc7vMBAMulkIewktelsMiSwE3Qb+T8NIyY6NqUlKrOXiogoNxNRw4ICMurpKEhGpksn6OHq9l78FqUjJ6KS6ZpqZmjrq6U5w+bcBmdeP1eBG8XkS31N5zITidCK7r8FktBkTBxebm9R7tUmgFq8VFYuKtMKPbodg5jpYapaybtydA9Pl8T2Tekmg976PIuQu8RxH29F6Qsm9KL6fkKI7G9vcaLPAUvGjQ8T4Zf6+wvO8xH+mfT8F7pOp7vDc/ienFovXET8GLVk0+lfNQNfAUvIeqrqcXR6sGnoIXrZp8KuehauApeA9VXU8vjlYNPAUvWjX5VM5D1cD/BfupHeI1kYFuAAAAAElFTkSuQmCC;" vertex="1" parent="1">
          <mxGeometry x="19" y="668.1899999999999" width="73" height="75.31" as="geometry" />
        </mxCell>
        <mxCell id="Uk-baVgjcUokTITf2du6-3" value="" style="shape=image;verticalLabelPosition=bottom;labelBackgroundColor=#ffffff;verticalAlign=top;aspect=fixed;imageAspect=0;image=data:image/png,iVBORw0KGgoAAAANSUhEUgAAAJYAAACeCAYAAADQUvOPAAAgAElEQVR4Ae3dDcxtWVnY8ZlhpjChWlEKfiQ2kEIbbIUUWwtJwQ/QBiUQ0xjSKLRWm0ZsxA9EvkERFBV1+BAQRURBUQZkUBR1JqK1nQGmCRKk0RSiWIxGgyICDuNufmfu/3XNvvuc95z34955L+ckK8/a6+NZaz3Pfz9r7X3Ofe9l0/6zt8ApWOCyU9C5V7m3wLQHaw/BqVhgD9apmHWvdA/WnoFTscAerFMx617pHqw9A6digT1Yp2LWvdI9WHsGTsUCe7BOxax7pXuw9gycigX2YJ2KWfdK92CdIgPf+73fO83T8573vEn6ru/6rulJT3rS9MQnPnH6zu/8zuk7vuM7VnlSUvfkJz95espTnrJK2j/72c9etSWf85znrPLa6U/PqONpT3va6pqO6pTR89znPncln/GMZxyMTc88NTftjPc93/M9q77zNY3XmXMPVpY4BTkavDynyoOLoznv27/926dv+7ZvOwAguAJCHXgAxbnf933fN333d3/3CjwwaDfX89SnPnWS0qWvMY2vv0TX05/+9FXfOVSu9TU3eWDVv7Usycy4BytLnIJcMnxgBYdoADBpHrlyLmjUPetZz1oBRQewgCMiAWAEQ1sp3do985nPPBhHPvCApe3Yf8wHrPkZE1xL66osM+7ByhKnIDP2OlkESAIhmJJFjBEg25kIwtnKgUGW9NUPFAFBd8BpB6y2VNcjTGO+OvDSsW4tlWfGPVhZ4hRkxp5LII13vghUFBJNAACKIpUyDnbNweqdvUQbkAWaa+3UB4eyopstFXD118/c6Kr9OkmviDlfy/w6M+7ByhInINuSOFA0sN219XGAfECV75zDoZyXjvJFLNFCHzrpELGCSFQCh77f+q3fujo7gUmZeQBCfyDRYczgNa5+2kqVK9P3+7//+1dg6muc2gfgHqwTAOcwFYzNMWDo7g6k0QHKOBgcABCRODVncWrJlsWpYKBDnyKYNsZzrdyYnF8kA4b+2ihXr0x7UrtAUiYB0FzobuurDx3aN09yXJd8n33EyhInIG1VjE1yEkMXYcAkr6zIQ7oGRWCNkUq+KBOIYDCGOgDrB04JfJwvyeujPDDMyVjqgh9swUKnRCcd47V+xm6NwWX+Y8qMe7CyxAnIzkDudo4JIEAFmDKQFbU4BTxFjiIVpypXHyBFJG3aIjlYX9CAyLW8vuYAEtd0aKefa+3Um7MEmqKbvPba9RrEPLoOKnKESr7PHqwscQISDJzH8TlLtHC3czQnc1rRhPPkAaFeHWdxPj22In2ltqj0a8fpJEBAUbShh079jAFi18DUzvzMhU596x/UxmgtgacvvdqoN660B+sEwDlMRVsOw4OD83J2IHBMjs/hnPP85z9/BYCooH+RBhzgAwFdEh0cTqdxJDpBYw4goEdfQKkLHv1dS+mjG9j60ks/aM2ja7rpaHxjq9uDdRgVJ1CfkTmKc4KJMziFI0CgTllRQFSROLYowvHqwcHp6QAZaAJlhEB+rNNPf2X0gkx/8wSu+YAHNNoY3ziu1ZPqrcO15No4Ad2ak5lxvxVmiS1lBpxL0SenjQ7iFA51xgq4AOuuVw4i1xzHuZLr8iQ9xiXbRgHG0RK9gQkqY9KrTHtR0dyKPEGun/5AorvkunmZyzypn9shM+7ByhJbyrkhuy7quOYMdzfQRIwO75zNGSMInAumIkF1yZwvgukvcTyddGtXG2MCUJtAJyXzMy9Q6Uc2LmBcSyCkpzZAVA++AHStr3FafzIz7sHKElvKDDiXHMcZnAgChpevHciUcwoYRpCUgaO6nJgDtQUMmdPppXNsC1rtzEWd7Y2UzC3gwSOZD6mftlJjagsq9c3LvOUl42rT+pKZcQ9WlthSZsBRih6cCQ5OAoC8yMKh6kEGCg4JqvK1L0rlvBxZRAocekDBsekAlHbKgTTODyD6BpO2dNMDpsbXj86kiKSN+WjTvEjRbT6OMfvswcoSW8rRYeVBAyIG52iOI8GmjuTcHBpAQTE6LYeT1ZPl6TAOUEAAphyuD7DAbD6g0QZQpDmYS7DQqY16ekmpLa6IVWTTJsjpH9eXLTLjHqwssaXMgKMEj7s3YDiH8zI8JyhTzzEcCgaOAojEeQGU43OiftoDUHJNaqcPSVdQdaYL6uAyDmg6X6WT1Maa9NHfQb/5t1ZrBJskr20Q1iYz7sHKElvKDDhKBpY4nIM7zyjTjoM4DgDagAFoOUnU0KfowVkcp58y/STggLSx5Ysm6gHTmMYraUMfvcqA1FjmoF55egNIG3lJHd2+lAadawDqa571zYx7sLLETGaobSWDA0Yk4QCgkIwun1MBBQBQSOpLHFkECyBSGRjGcw2ncrh6+ulQLy8B3FwA49o6AiRwx4gpr54eOgEXbEUv/cobn07r0Sc7ZcY9WFliJjPUKIsGY1l5zgMWALTLifIcNG5h2kjag0nfOXiuJY7TV9JudCzdQcC5YNBemTp5+ukBJ/AAoW316rQRSdUHm7HGNWijvmg1rpuurjPjHqwsMZMZapSjAcdy0YpTi1jqcoryIo76tsLgUlekyGnAACMwtOuADgJjBYb5BKW2tiX6QEBnZQEXmOZHhzZ06AfcbgxzTLd2Ep2go9N1OoA62iUz7sHKEjM5gnNYnmE5j0OA4FriAGefIErWzrX6HJWj9QUBuDiz8xPnqjOftqIiFqA4nZT01b7oFbz0Gk9/dfoEe79kMC/9tW08fegFH8DNQV0pG2XGPVhZYiYz1Cgz8lgmn5M4hJM4UTnHiQQBlVSmnUjEWfTO73xOtfVoJ+kLggAJrAACNpACORiVBy5Jb1FPnTFqC2LgjAC1Zn1FNnPWzrU5kFI2yYyf9GBlkG1kwKxry/mg0Y7R3dlBEUzacFzAcVZ6OVE+0DiM8+tbpFCuDQk2KbDoA4sxgkz/sRxcdNUfKNroY34ALTLZnrVXJqkX2fQPrNEee7DOWWA0Svkc3XWyu7frUXISo3OyvLrA4jSJs8hgIIs42nOUsfXP6SChF6Dy+tAbWPUHkTaNpY/xKlMvqQcIHW2jdNANPm1cyxsLWOYUuPTRq858QUdmiz1YG8BaB9C6coZVx5kcwMjA4DxlnJmj5TmOU9VzjEgRKCNYRSuO1F8SXfShv/mQdOZ0MqCMN/anA0R0gwgggUMH6EBFjpHJGtXbCumkI5jMpfwerA1gZaS5zJHzco5Rx2kcJs/YEhCCIjByZhFBG6ABhvMCsYgSHGMEMk4QjoBqW39wNfYIXeMBqPHA3VZYf+NpYx3AIl3TZW6uzdk8sskerA1gMVaG2kYCSWJwjuqaM9zZyiURglOLFIDQHmDaiRKcqj7HkfoqF0ECwBgcagxzJPULCkDpB44xKdeGHuPRYx7GoU++aNZrDnNuXcCiQ1t96VKXnfZgbQCLwTLUtpKhOZKRnUvczZzlGjTBxKEcDRJA6aMdB5Ecq2866NWec/2bQfr0Az+Zg80ZEByvLX2NG1jmoL5kLvTpp4+x6SPpDuIA1U8ecMHsWvvs9EkHVlvCXGaQURYFxjL5deVACCzG147DOKsowgHGJgESLJwkcrjWhy5jAaU8SPStLWA4nm4watcc2ppIdcFQZDHPInJtQAwu7dWXTy9wmntryhbK92At/Lx2Ds+m64y51IaTGJkDOYYEkQQaUEg5BhSilmvOBwsHcWwONY4x6aMjwOSNpe8IFhjBSbekHwDNwbU50ke/Ovr1128cG+j0BLc+yoxpfsqzAd17sGZgcVAGGiXDj9flR4NWRjI8gwcWJ8oDB0yVcwI4ABF4thvtSePmOHkOAwanypP60kkXvcrMQT8SoOpI0IxgaWOuAJMXqaxJvv7NoTJtRx3ZJj3mPtplvxWee88zAlI+43WdXFeekzh0TAEFoqJNZRzC+YBSJ4KM+osgnCZ6/MAP/MAKFNHNDTECpZ+36eZBp3rzoLdzkvGMQV8gjHlrLMIBMijpM2c6AaaP8bSl39wAmo32YJ0772SQUY4OHsvX5d3VjFskCSIRi0NyNOcWgYJKBFIOCuNKnKpc0p4+9WDjSPrU0aFM9OBwzh6jmvnor6/yxqZDmRRc9ASi9bg2L2UgNabxAqs50jHa5ZIGyx22lBhI+bd8y7dMP/IjPzL93M/93PS6171uMVX3sz/7s9OP//iPTy9/+ctX6Ud/9Eenl73sZav8S1/60uklL3nJKilzrf4nf/InV23UVUZqM6b6v+hFL5p+6qd+ajUPfX/wB3/wds4aHbcuz8FA4HzQBbM1tyWLXtUHHFCC1UOFvqABIh0Sm7Wlaw9kfegOtOa1B+uIYAUI0EZIwPFDP/RD0wte8ILphS984XTNNdesgNNe2x/7sR+7XfsRRG2A9drXvnYF5VHAEq26mYowJFAqB0NA2FKLkEVF0QlQICVdS3TQJekDJvCp24N1bus7asQKkBEoZSKUyNQZiOE5hnTukUA29huBVK5/EetVr3rVkSJWcFjfHCxRR8SxxQGhcxc4XINSPvA6PxX1gou0Nnqsz5giFR37iHXErTCwijyuA0u0csZi9AycZHRRbIRpzANLf1vgz//8z09HBQsUoGr7ApdrkQlIrgEjgUw7kQggzlPmbq4SYPRNH6CkdNSODKzK9lvhjluhyASCV7ziFStIRrBsgQxbpJLnsMoY3/Y4AiWfDpLen/iJn1iNIfoF5rYSJFLRxXkLVCKRpBwobWvgUg9I2575Bgn41NGhXWDpr047N5KzlnxSvs8l+Xus7rYlyVAOqQ7vDubONaTDOik50CsnXTu8cz4Y2tKCAhCgySk9oYFKWQl8Y395W2APA/TJS0cBy7pEJtsUwItSQCov4nTNNoDS3hyBJYFQewlY2pUHlTakdY6vGYwp9fmkASujMpSnQs77hV/4hQN4goq0JSVf85rXrD14g8HWaCsLrECaS9shaAKyJ83gClgAzvtuc11EAgqHg8aaAWfbs27XpLbZAygg0d4W6Kmx7VQ7UIleEnBApS8Amxcd8mSfMwtWixqlhbUNMdbP/MzPTL/2a782/eqv/ur0y7/8y9Nb3/rW6Vd+5Vem17/+9SugeqUQSLYikWQpvfjFL16VA8QY9GdQsACjNmP/IhEAnaNEQuMZ+6d/+qcP7nxOo3Nczy75YABCh+sgCShQBViwBQuwRugA6TqgtJPaSpW3fjI9lyRYOcIiLfbVr371CiZgAUy67rrrVk7NuRwsb9vr/dMcDNcA8XTX78WN1XanPIDGvvVTByzzMR64SE+CbSfmW7517CJBFDR0iSjKACDyjNtYL0NFKOW2PPAp77rvMemSrJWuxgBw81Nf/pIFiwGAZaFFLFFKtPqlX/ql1fY3QtULUm1tT0tgBAi9HJahMyYgbIfzvuM1uF75ylcenOGA5XxmS6Y3SNO5q+RoThdpAOMaUKIXYBzSx3kHkLrOXSKmeSjTX9KnfiO88tqb+xhpL0mwMgDJ2c5Hv/EbvzH9+q//+moLfMMb3rByLKdKoCpaiSa9SpgDEVj0MvocAtc//MM/vBYsUDlL0SNKtRUrd6YKLPp3Bar2oAIICSzRRSQyX3pH3eZr6wOhNgACmvLWCEQ3EWiUqRvBUm/sUa/rPpfkGYsRJFvbm9/85lX6xV/8xQOHBlSABde6rdCh2xkKCLbCnJlRjSXyaDdCGZCV60+P6Ghs5RJ9boT0pX8XCSrbly0NKMBSJola5giGboy2NGctZcbSrkgGok1gpVO/cd6XJFiMlzMs3Fbjyc8TXhEqmMAlr04bcNmq1oEhotFX2DeWSMOo8oDz2gE8UtCQASUiytNTXiQDlTTOv3VsKwEhCoFEHhSu287YQ75I1OEdYMqKTPqJYqKe+VQuP0Ys19J83mcGrCXDcmZ3iTvS3ckQ7lZGUcdYyhkwQzMsY7tmFEbkCIDUXrl2yuhUzynyxjIGvUvzuphl5p1drNEc2QI4gHBtXcpsgdbBNkW11u9avT7ZmGQPdUW6dWs902C5iyyUMUEiDwDOl1wzDGMxJoCUuc5YdFTP2IzM+NrVxzVj0hlc1a0z7MUqty72YAdzDIAASlqnfIC51l4/QAYW6ZrtSvr0DoydltZ6psGyIAtjSHAUeThfUs4IjAUwYAQeB8gDUnl3MmPTQ7d67ejSTnKtPSesM+qSoS9UWfM1x5wPDglkUj+fURZo8tbtRmM3MAWQOvrYUDk76CexW/Ya13imwWJEzmUMi7ZIBqicDA6LDwyyuxo0dCiTujv11SdIGU07+nOGtqMx7wh56wJ9UAVAcx63PXmQFan0ZQPrtjb2BJfkxiWDzNdhdAJVn/nazzRYFsMIQSLfXcUIDAcQ9YzE2IHBKAwafK71AY/2GaprZfIMybiBXLs7igSAOVqP9QaYtTVna7aWbAUMdnETjQClRzu2ZS96SGCpZ2N95us/02B5ErHgMRxbJKOJVBbOCMoYjUFFN8ZmoGDRxh1adKudevmeeIqIHKFcewalk9ReWsqbkz5zB3Rd3/pXvqtkD+DndI7PDtYoacMe5p9drMkc2Up7qcM96MzL+vUh0wvgO3zEWmdEi+KUkpeJvSkfpVcGvqrxlU1v2d/0pjet3hd5rPcdoDalXjUo7803SLwy8PbdqwdtvY7oHVd9el0xSm29qgAup5hv0G1a2wiTfGldn03lxuTswACA+ZAgMp/0awsm+pR1DZwgAmFJvZusegC7QdXP53SHiljzyXWdITjcz1y8XByBKs/JXoR6w+6rGymwvDPyZa+33SNY+ioHa4YjvYvyAlPbvtOjf963sUntjAOqb/7mb17dyYeBpb7UeklrHq+3zYtIbVdFHtJZqogsAokyQWa9xgNZkSubg9FWCMwxwhXFQXWmI5aF+g24F4tAGB1anmPf+MY3rn7F0JfNpGjjBSSnywOkPvL00c2wjN1d7CVpb8e1C6wRtMpJL1jN7/GPf/z0Td/0TSuHcMwmKDhGm8Y0PqeRm/rl+HmbdIEFCJwONnCJMPIimC0voLQxj0Cjk/6kCAXMINNWfXNWP5/HmYhYTVrE4jjf/QXGKEWTa6+9dvUls18yiFgiGDiAZXvTXjuSHglAjBoEGVXUsk36mXDRC5jjtjiODzjjuLtFjVLzX5Ic3hmPwzjLPJrDUh9l6ktjG+sAjDKSLoD10AIsSb1yOtSJSq6DLVm9KAzG4NTfDWDOQB3nIN/nDvFd4XxyrlugvHMQCDhwdGj5IgpwOL8f8PkaBpDAKsIoc+3LYMAyYFGivJ/BGE9f0c75CWT6AG2enON8dSMCSO5kTltaV2XOQ52JOEgC5GH99DfP0T7KjAsSgAIFtOmjW30PNCQd2oFGHX3NrTr9zTEQwdT4+oBOW6m+d3iwTLbF2q6cr4o4QUKOcI3lALPVgaPDOzBBAgQyI2WUDNR3fmABWEm/gDMf0CmTB6NtgzM4IF3pnsvxHDTPz9uO190EbJN91Bu3qAKwwJUXqQCnDSDAJA9ikc18i5bZXRl9orD+bm51xhexwAksdcBrjhcFrAZfJy0+p4oOb3nLW1bbmvPSeDAXkTwFKvMbKz+NsRWKRupEJM4uMoEMVEUWsAWISATAANFPHaj8xiqA6LJ90mUcxhUJijpzOLpet9bql+S6PiNIAVBbekAQUEnOBwEAwAQgehpXnQTAETB69dFOBNYHVMalo/76nSmwOM+rgw7jc7D8DKY67QAlYnG8raooIzIV1eSB4rdTIgyYRDPlok+wjXCpbwssYrpmZMa9kGBxKIcvHfLNoy01p5McX5QDiogVQOq06WyofxCCScRKl+ug0q7yItRcXtAzVnfXOlnEEi1EEr9TdxjvQO5QDiLwiFDViWzK9OlgDo7OSD1NkiDqbnfgNlZRqUhFqiP1CSgSvMaxBs7klIy8JNetdaltZev6ACKoRJAxgrV10VG0khelRBTJ1hdYIAOWemuwjYturpUXjVsjyMAFPGXNdQ5U13dYsPzozjYHpCWwgAQodTfccMPqdYM+ohPnAyhQOme59g8e3PmSvDpJ9FIvXz/A9cBgvM5wpw0W8Nt2yrt2NnK9DjyOB0UAWaP2EgjBF2QA0V4bevUBE4Ck4AwidQCU5M8kWJxruwGVKDWescAEHtEDeOpIThetSHX602Pb44i2A/mMrQ48RTdAjfl+xw7SdBvbNk1f0SEjL8l1ECy1raxIlAwMUUZUdz3XG0T6lLTTXpQqQgWOsUADLmDpM49GI0C1D67mWoSay4sesTgop7cVAsIWVLRyvgKQl6D9bh083q4r71/eFK2Cy/kIPIGUwXOKcXvyI21/xq5MXw8TgBOlRC+JfnO1dWTgdbKx5nJde+WBY776ZR/wBJY21WsDiq6TgNLHtXyg2PaMA5LmAS6gWZN22oCwNkW02ifnQHV9amDNDTleMxTDeI/EmSIAUAD0jne8Y3r729++kvLzpO6d73zn9Du/8zur9sAS1YLPId7XN85nwFMnynlytG1qP08BnC79QNk/MvW1j7NNDh/XMuYz9ijH+jE/tpnnG0eU4XDbFzjmMIEsndrIs61yIAAFUPrS1TjBklRunEAClrOWPnRId2iwLNoiOYmURAfblkjA+aDZFSxggIL0ROjVgKjiXCTCVT8Harwenzq1p4OxRa2i3ujIHDrKHDfKsX7Mj23m+c5BOdW1yKM/m7HjHHTnJ9saALQjlYEEIK6NY03WkQ5tA3mc35gvCu0iL2jE6m5KMpZtBli2MYfwm2++ebrpppvOi1RFrqWIBQTRSKShj1HItq2gK6qNQMn3tEn+5m/+5irCiaRPeMITVrq8mphHi9Hw5eeAuK5uLpfaVgYEkABLGbACZq6n66KNKAQcST/ltkkpqKyFD/TtBk/PktwFqNpeFLBykrsOAM5Tzk9ve9vbVkDtClbA2AIduBnV2UjU8loCMFLt5mC5Bub1118/3XjjjattVJTyozYOoCtHLBm+ssAYZXVzqU0RKYDGfmMeIECb6xivRaa2ts5VQFJGv/7sok9ryQ/gGnXN88Gyi7ygYDVhhpL3uG8rFFk43rmJY3fZCvUDhXOUA3bbLOP1tpx+9UtbYv2DS8TyMABQ8xStnLHMN8e0jrkcYSg/b9O1M4xoEhAdqOs3yt431XdJ0kNfWyCQinrgosPWWF9QjanyJbkLULW9oGBZCMe7oxzcRSuP9yINOEQs0QpY6+Ba2gr1BY33WPRLIABErw+ct7Rzjusg7zqg5B38RU6/jACleYpc4GLww+7sEYbyS45SZn5FIlCsi1pjVFunSzkdoGJjul331Aos0I03xrZQ0X2Uz7HA2rTQpTqOsSCSs0QSZyuJ44HhcR9wYxpfATj7iCYiEj2cXz5Y9U0PKQFMuQjZtac+8xQ5fcnKMf2mOzDmcmldlc3buq5uLjlZFOF00Ypc6g8sdeRcx3i91Ddg9RUhbY2jvfiC7chR1zx/hwYroEwaAJzZ4Zr0usGLyICYgxUgJLhEJbrAFVhk22t66jeCBa4AdX7y1p0+W8c6B+e4udHH69qMcqwf85zM8caT5Md+S/mx/zy/1D6dRT3XnbW6yek5s2CZeGBxoGgFHEDZfvq65LCIBQb9AgtIGThD2f5qByDtwRVYXVemrWjlj7GJVhcKrEAwXlGpMk9wIow0zqe1LsnsYp1uUE/afs6t7Winpb7KTvpzQbbCwCKLVgzBAOCSev8UDOrHpLw6YDIWSDNaYygTtUZDj9ELSJIy7ThCn8c97nGrnxbbnnLwklznGOW7tO/wDqoiV/1tV15s2pqLOuo2jd16nQ3Zkm2trz7sU35JnnmwOJFjQcK5DMG5pSAYoVKmjzJ5cIpQGSioSOW2N/r06ctleQdxfc2B1I5O5Q6688iRo0fZmEtybFd+qZ0y0AQxeDpo62cN4NLGofswXfQFlvV2kypTl33WzUX5SX8OjVgtapTdYe4qEaNvzdvLtZWvj8NphusOrG2ytl1r56lJ4gB3eI/LDr7yjJ/ROAMsXZuXdhIHkc415kGXcejVzjrakppf80l6aan9JufUdpTr2rdO8wGP6/pZg/k2ZuXrdCkHkQjlBrINAszNZX3ZZFP/OwRYFsoRHOXuzxAZi+QgBiM5RKrf6MTRkfqBkBwfjwEkMQxDkcYEE6ksA6pTDjxj6sdJyuUdXo1pDqBVbh0d3I3d/MzXPCT66dV+XQqAUW5q21jmI1+/1mJOzluVr9OlHFh2AVugiAUsZ6x0beqr7qQ/R4pYFsr4Fs5ZHMQ5OYGh1IkUykUEdx8jBVLGLJKRdPaiMB1Bqb9xACPiqC+Cgat5cD6Q1BlXnyDMuHSam3JltTV/8zBP8zdmOugM0PTMZQCMct6m6+xgzfJk/bSxDuUjcPVdkoEFKF/qn1mwLJgjOImjGYUhMgagOJWBOCkDMSDn1U6/Qr42o6G1Czh1Ywpqzg4QZYEMNA5Q566tHaldfYpEYLIW8zHnknbytV9yamWBMcr6keW116b1lK+fdsaclzfOkrTtbRuhTjo6Lek7csSaL7o7nYMAxzAMwIkg6iWgegl0nM/RnCsyiCIZO6kvfY03ltMNBmDSAyqJ3jlM6s2n6ClvjqKVuRjHGHSqy7naSHMwtJkn/efJXBwX0lGfebvxWhv9rHVeXv+5tA16bWLd87r59RIIa8s+8ofT229+3/SxtQ2WK44EVk7IyWShvDJRjNNBoX2RR3nObTviNGXpTdfSdRENAIw/Gg0gwAIaYBg5QweIMc2hazqM7R2WOcrTGUjJysbx5vkRgvIBvStY5rELWA7tnXfNeT638XoZhaH0Y3883XTti6anPO5Lp392t6umuzz0BdP//cRQv0X2AKxx4PKMwTGku8E+flLJawPh25OMMZaMocy4vb/SR9JH8rpg3s87LuWiYmDm5LkMLhCCEXCBkA12kXP9rtNnnuNcl9pWZsyi97iGTXOx7iLWOM5Sn8O4uOXtT5n+5VWXTZddJo8ka30AABSRSURBVF01/atnvWu65bBOs/qNYGUUDvCPRjsgngRc24BlXK8Q3I1BRQLNG3Z15lhUYsRdwCriiXL0uDbmkjO2KQuMUdK35OixzTxvLBF5KWJ1ozf35tX3nnOAqx/ljIHzLj963ddNn3nFObDudO/pv9+w60Y4TRvBapIMb0E590KCJbzPwXLNUOYXCDlvF7DaittCrVOEGJ2wS34OiOvmOMJPZ21t7XOAgie4zElqjdbcuptf+ubyPGoOLbh1et8LHjL9g1W0umy64tMfM73urw7tdF6DjWCZtDvDtuKO5tC2pePCtU3EYkjhfQ6Wp5+MTJbMdxewnP/ApF+vHJyzctauMkCSnMx+za8dgF5tjE+O7fVRDxzAg5+U0kMGV2VzoLo+z+OHFvz19Ob/8jnTnVZgXT7d+Yuvmf7w1kM7nddgI1juHBN3kLQVejdyIcEyvq9bnMUkY0vKMujoLA7ZBSwRgXO7+zmPk3cFqvagFFl6wOBctqM/GGqrjTOd9nOwat8a62N+gapMPRtJgTSX53l8qeATH5zece1Lp2c//j9M/+6+nz5ddXnnq8unq+/14OkrH/nI6ZGP/MrpEV/+sOkrn3n99NElHbOyjWCZvMUEFueKNMeNVvq3rQI2I2XAUYpOtScd2vtFJ8MGVo5zcAeeKDs38vy6tYlWnOkAb63j+LvkATKCJZ/uOSTmAq6lrTCwGru+dI3rdQ00ab62rmf+Xrz8xP95+fTYhzx4evCDHzw9+N/cZ7pb56vLr54+5/MftCr/t1/4r6cHfv4Dpv/4ivdP2wSwQ8EyeQkAogW4jgtWUJHOUBlwSQJFuyKliKRPBuYEqbvZjwDpyWkZeElqF5A5B1xL89imrMhjbFCJhvULjq5FSxFOm/lNUBvrss6iknLXtsei7dK6xrJFkjYUeiL8F+eeCC+/8xdP13xgG4zOV7gRrIxOOutw2kmDVcTKmHMJLCADC2CiEYMDQdvmGGjacUROHo08zzdWOjj5OGAFs7H74n2cY+ORblbwiZDOeSBrfrVrXl1bl7X3DUERkp76zuX5Lt9Ucuv0Jy/98unqc1vhlfd70vS/Pr6p/fq6rcDqrhEtTipa0QOUTV9DMKJtb4xY2i+BxfhgA6I+jN33jnNjd53jSEkk0C9H7iqBSQdYnJ9ElXEMYKRT3vzMGcwjHLWZS+tWpk83TjCvd/EuNR+drvu6z5yuWB3cr5ju/jXXTn+9S/eh7UawLMKd1V180mCBq9+vc8CSIb2fAZakvYjFKUWoHGd7ZHj6zNNdzehBtCT1rX/6wDCfx7bXxm8dY36pv3pwGJd9x/kttVemj3UaI7BI6UQ+t9w8Pe3+V932YvTyu0wPe/Efb3WeWhr7PLBM3iJM3p3B0O4+ZUWP40StICFtq4e9eR8P77Y51+YxAiHPQeYLLNt2hh8dNs8DND3jutc59iTLjdfWy77jfDeNY76ioq1T4h/pJD63/r+XTA+/+vLbwLrq86envmPX9+1/P4vzwOIgkxepLNyCHS5brHdKxwGrviNYdBuzMZIcb2ubP42KSCByNjHP+pLA8kbeb9g5bA7TeN04F0Oav+1PYuNtwOpBR4TzsCJZs3QSn4+88bHTPc49EV5xz/80vWmb9wprBj4AqzsWWCYMqvZvi1euTU9nAXJUOYIlwgTH6OS+zgHWOC54zCXjmhvAtFfngcD8x3PLCFT5xgSwNI592nnQBxU7bwOW+Vq3JD++Glnj3x2KPz7d+KT7TVeeezF6ly990fTHR3sgXI15AFZGdjeIUBYr1HZOCSxAHBWmpX4ioO1tyZFAsVWOYMnT05bY2Up/bc3PVtmTUxAtSQ5qXOsrfyFk8ylabQuWG8jWBypRr7nuQNBy01s/MF3zxXeeLl+BdeX0z5/4P6cjPhDeHiwTZNwilYVbLLCUdZeMkWMJlF3KQEAfuNZFjPGMRbc+9fNNgL6ilORacuA355y3TlqTcckeUHLUact1c1K+buxlIk6o9CPXTl9z9yvOHdyvnh75yg/dpviWD07/42VPmP7z89621Rv3ZnMQsdAvBVbbCLhO44w1QgKUzg+jUYFuW1MfsIFdmeuiWDpFOjdEa1jnRFAZ1zjAEgXG7WWcy0nn183pYoH1ifc+d/rCg5/KXDnd+1FPn57/rP82/fv7/qPpqn/8hdPjX/venX7sdwCWrRBYnjg69IIKaMqEYI447iuHok0QuJaWwOJMY/bWf/yuMj2BVZ1y63B4bxtf50S6JRFLH4DZQk8aoiV96+Z0scC65X8/Y3rAAVjnviu8/K7TfR/9nOmtf7j70+EBWMBhgO7g4AIWYzso906p6HFUKcIEhq3Mkx8HLzmgMmNrO45Jh1RZOoECqvHcsuRIuhu3w7BzZWOeplyaT2Xrxm2bORX512+Z/us/udNtZ6zLr5j+4T99xPTk171n+vARBzsAKwNzSsm20NOLR3vOHbedHLqLDAaRxstOIK+LVj1QMLS8LU7EBFhborEDinSA13b+/VtOG2X6W7s62+c6x55k+TiPeX7dOEfx8Uc+8pHVH//dpu9fvfsN0zXPff700jfePP3JcU7u0/BDv4wbVC1OpLIV2iY6SO8C0rxtYCkHqi2osRszyfHqgGde5uAakA7rdNEDsqIZ8PRzZjpsK9QuuIwpwl0KW+Gf//mfr/5yz6Me9ajp6quvnr7qq75qG65OtM1BxBoNzMgcSdoiwcWhRYs5LLtcB5btz/sreqX5+MaurPqu1XmlUNQiRapgBaAIu813hekkRQ5w0X/aaR6lxuujePiP/uiPVkeKL/mSL5muvPLKc79Xv+2s5A+vXOjPAVgZkoEztjKAgcs2xIFjlChaVLYOMPX6jiC0/SXHMZtLcqwLMlCO+kQs27SDPrBs485LQLG99YQ4RrH0k8YQmc8SWO95z3tWa/2CL/iC24F02z+CuA2qT/3UT50++tFjvEI/IpHngTUaG1QMHljAAUlnHE9irteBFYi1qZ1oZRz6gZJjx7EPywf6OCf6gUWvLbZ3WWDpMC9fdBjHaJ3ajeWnlW8OS3IbX/7Wb/3WeZFpBKq8v6JzMT4bwWJsEYXksA7uJKj8x0bBsxSt5nUc72zUVzj0chxZfltHLoFlPOc2OgAranWIB0wJXPPIZHwwju/stp3LUdotAVXZtiD44713utOd1kYrcPkTmBfjcyhYHMjoS450rnHuKhLN4VI+Jm0DNZDIIuMuDprPp3H6eoheWyJYegCxHYIrB47jae+rkgv1Br45LMldQPCXZYpOc3nPe95z+sQndvyXprsMvqHtRrDaqmyFnCTajPBwpm1tLJvnczjpaY7OESQOLY2OPiy/BJax22bNl970GFMEc47qpybVkdpy8lkDyx/qnQPVtf+f+mJ9DgWL0TnEXS/icB5IbIe2Hg627cjPoXLddqi9/iNE5UcARmevy2sv8jWm+XTuE0XVAav+2s9hdq2erM726GmyfqcpT8Lh/sT4Xe5yl7Vg+fPmF+uzESyG7SmMc2wzABmjkAgxOnkOV2CNEeu4DjOXYHbWC3ZjyJuneslY2kvrxq1etBqBXNf+JMqP63D/Eeid73znA6i+6Iu+aBVti1b3ute9jjvEsfofChaju6MZ3AF+hCqHji8rLyRY49bcvHYBK6Csz3a/Cb6TgGnUcRyv+WPAV1117ifEl102fdmXfdn0N3/zNyuVdhZw+cbkYn42gjVGK2C57g13UI0OnUPl+rQiFic5sxWlxnlsG7FGkKyvbXEE4LTyR3W6/x5mfBL8iq/4iuljH7v931YA1bvf/e6jDnEi/Q4Fi7EZNxlYbYmdbXLwHK6TBqsoY07jS9KjgOUQ7w6nK72t87SASu9RvOe/urviinO/mbrsstVXNX/7t397FFWn3udQsIpUDCJiAUXqbBM4c6C6rp7jeyrMuEeRAdB8Av0oYHkz7xWEh5OiV/Ioc9ulz66eZcfLLz/3Dx0uu2x6zGMeM91yy+4/Z9l13KO23whWTszY7ubRgcGzSWqvvu8F6aCvbTZAtnVKc6KHjr4jNI4oaizfI4766jOWyXu94EnQG3oH93Xt5v12uT6qY8Z+1tOhnHzsYx970d5PjfPalD8ULEZkcJIzN0G0VJfDey2RvtGJANnFWemgc4xYwHIN4m30AWt8G28eR5nLprE2GX+bOrpHqL7hG75huvXWY/wrh20GPYE2pw6WEA44DutFqzywcmJRbJOD5nX69pTaec84Du4jtPN+43VvvUUtgB1lHqO+pfxxfGSLHqHywvPv/u7vjqPygvU9VbCcwwKL02w5nlj6VyZ9vaNuySmbytaB5btC58JNfasDlDOWeclzpK+Aqj8JeVRPstMIlZ8AnaXPqYPVVgWeIoPo4GlsFwjmThaVgJl+AItco05t5v3Ga/MwJ5HLQd6P/MA1tjlu/igw+EO7I1S+GD9rn0PBAoToUFTpzNR5ynWpsiRHc7gDtkggOuRIUNi2en90GARzBxeVvCQdt0JfG41b7LzfeN1cQNW22OuHsd1x8rsAYZv7xm/8xttB5fhwFj8bweIgDgQB6ekENGAJplEGVLJ2XjN46urXBSRdwAIsqAJ3WyfWz1dKwAouY4pa24BqHr6UthUG13HAOg4ADuRf//Vffzuo2P2sfjaCFVCcDax+ySAqiBS2IWAF0lyq52gQ2WZECM50xtK/iLUtTGM70EtzsMzHeMA6DK7+9gOwbIui1sUAy09bvvZrv/YAKu+r2PgsfzaCxZEiAwdykshjwbY2qYhU1JqDFXSe3hxGO9OIXsDyWkCo3yVajcA0p8ZPmqe6w/Rq44YBfNvihQbLS86v/uqvvh1U7HjWP1uDBTIRhtNGgHJmEI118qIWB4tUnAcukYIeOp29OHeMRpvyIzD0grbIaQ62xLbYw8AybnO7GBHr4x//+PToRz/6ACpf1/hfZi+Fz1ZgcaYkSok0ItUYrYIpuIJNW44XodoGSVHBOSiADgOgdmRzsU3L09N4jb8tWMalw9ZsXua5C+TjvOR3+fgHDo94xCMOoPIva17zmtfsouIO3XYjWIzOYBzA4N50gyWQ5jLHkj0JenwXoUQEUUuEAkVgGSMHzx21dK29ZHvWzxnL+7LgMidgqV/qP5alh7Qlm5v82GaX/Lae9o9IH/awhx1A5Scwr3/967ftfibabQRr7vD5NngYWIAqUnnqckjmQM5zviKNMR9nkzP1qR/Ye6A4ClgilPkYb5c5rJvfNh7/8Ic/PD3kIQ85gMqP9a677rptup6pNluBxZGMuStYbYG92Ra1PB16ABBV6KR7m+gyd2ZbFrDm2/K2EasHBxEUWOZx2FyO490PfehD04Me9KADqPwr5Yv1r2iOs45t+m4EK6CKEB2U55Gq6/lW6B0RmHoiFLWUaW9Lpdf2E2BzeJau9ZFsy0DvzHeUiAXOIlWgLo05lm1j1KU2/tn7Ax/4wAOo7nrXu0433HDDUtNLomwjWIxeYnjblyewQJrLOVigEbXABCqAiQh0OIOBI2jJ0YHr8oEl6hl/nE/jbxuxzCV9245/FK//6Z/+6XT/+9//ACr/Ovm3f/u3j6LqzPTZCBZjAyoZFHOguvaon6NtUfUFF7Ac3kUZW5c+XmSOzl2CqYhiu1KvPR3G6ceGdIEKrCS9+i3pm5dZW3Mw38P67erZD37wg9P97ne/A6judre7TTfddNOuas5c+41gcUJ3MinCBEUwjZKjORxgwKpvEcub7SINPePvpmo7d3wRk/Pb/gLIeH2VAyg6jduZaZ3OxvBw4Qterz9E1yCufknu4mF/qOM+97nPAVR3v/vdp5tvvnkXFWe27UawOCbncKxI0HYzAlXEGCPWuNU5sPcCMrDUc5woseTAyoxfFAEWcJqD8YwNqMqcA2ufTNdcAsv2DHzJYV7ZSXze9773Tf4JVr9S8K+Sf/d3f/ckVJ8JHRvB4hiJ84EFihy4BFaA5WwRqSfDviOsf4f3bcAKCHPx/iugGg9YEljNU7tkfZckaEWrAPOi1BPscT+///u/P33u537uAVSf/dmfPb33ve89rtqD/u985zvv8D/4OxQsxud80cI2FxhLYFVHSiJc2yCHyQNA310iFiiKXL3yaIwkvb10BZb2SzCNZdqBqjfvoqp0nM/v/d7vTUAqUgHsD/7gD46j8kz23QhWziFtMXOYus65pLJRglK0kpyxAgOkogrdpdHp83xRU7/GAJOxRDBb5NinqDWWLeXbpr3I7TdZR/Xku971ruke97jHAVT3vve9p/e///1HVXem+x0KFqcXsQKGYzmzLUn5WBdw6h2Kg4q0nSoHSI7eBFZ1JBD7SomOop9D/PggkN5t5EmB5VD+GZ/xGQdQ3fe+950+8IEPnGk4jjP5Q8ECle/7OLZoETjj435lowQbsEQDiRNFFm0AMjqe/vG6vMjT1gae9I9gAcxWXZ9t5XEMN/a98cYbp0/7tE87gOrzPu/zJq8ZPpk/G8HiUGCBwyM8sIpOQZbM4aN0jipiOWPRVZTxEnOEacyPYASWMtsxoIqOyV4xjP22yZ+E473o/JRP+ZQDqB7wgAdMf/Znf3YSqs+0jkPB4nDOFS1yJGAclJ2XyHVwKdfPk5fkMC/K0aPfOphGKGpjGwS3SKd/Ccj0jn22zR/Xc9dff/3kq5kO6v4W6F/8xV8cV+0l0X8jWBzEsaIOxwYWoESfoJu/hqhdZ6nOP73DErWU6R84ySUojN1cAKl/YJEiWbqSS3rmZcfxoC+PfYkcVP6j7r/8y788jspLqu9GsDiJUzu/dK4BBdhyomvRSb0IUv7Vr3715E8ZugYiKIow9SWDZu74ddfpCdzAa9sk1/Udy4/qST9zGf821UMf+tDJz2H2n7+3wEawRicACRRFiDFi9Y5LvcThgHrVq1612vqAZRsT6fS3dZ00WPSZo3kFVtCO6xjzf2+G7XP+DtVnfdZnHUSqhz/84Qd/m2p7LZd+ywOwLv2lntwKvVrwFLj0t6lObpSzrWkP1hH954/3+8cQ+8+yBf4/ytIdvZQ5cCUAAAAASUVORK5CYII=;" vertex="1" parent="1">
          <mxGeometry x="15" y="501.42" width="70.63" height="74.4" as="geometry" />
        </mxCell>
        <mxCell id="Uk-baVgjcUokTITf2du6-5" value="" style="shape=cube;whiteSpace=wrap;html=1;boundedLbl=1;backgroundOutline=1;darkOpacity=0.05;darkOpacity2=0.1;shadow=0;size=36;direction=south;fillColor=#669EFF;strokeColor=none;" vertex="1" parent="1">
          <mxGeometry x="92" y="626" width="52" height="111.5" as="geometry" />
        </mxCell>
        <mxCell id="Uk-baVgjcUokTITf2du6-6" value="" style="shape=cube;whiteSpace=wrap;html=1;boundedLbl=1;backgroundOutline=1;darkOpacity=0.05;darkOpacity2=0.1;shadow=0;size=30;direction=south;fillColor=#669EFF;strokeColor=none;" vertex="1" parent="1">
          <mxGeometry x="138" y="647" width="45" height="83.25" as="geometry" />
        </mxCell>
        <mxCell id="Uk-baVgjcUokTITf2du6-56" style="edgeStyle=orthogonalEdgeStyle;rounded=0;orthogonalLoop=1;jettySize=auto;html=1;strokeColor=#FF644D;" edge="1" parent="1" source="Uk-baVgjcUokTITf2du6-7" target="Uk-baVgjcUokTITf2du6-11">
          <mxGeometry relative="1" as="geometry" />
        </mxCell>
        <mxCell id="Uk-baVgjcUokTITf2du6-7" value="" style="shape=cube;whiteSpace=wrap;html=1;boundedLbl=1;backgroundOutline=1;darkOpacity=0.05;darkOpacity2=0.1;shadow=0;size=14;direction=south;fillColor=#669EFF;strokeColor=none;" vertex="1" parent="1">
          <mxGeometry x="174" y="681" width="28" height="45.5" as="geometry" />
        </mxCell>
        <mxCell id="Uk-baVgjcUokTITf2du6-103" style="edgeStyle=orthogonalEdgeStyle;rounded=0;orthogonalLoop=1;jettySize=auto;html=1;strokeColor=#FF644D;entryX=0.5;entryY=1;entryDx=0;entryDy=0;" edge="1" parent="1" source="Uk-baVgjcUokTITf2du6-11" target="Uk-baVgjcUokTITf2du6-13">
          <mxGeometry relative="1" as="geometry" />
        </mxCell>
        <mxCell id="Uk-baVgjcUokTITf2du6-11" value="特征池化" style="rounded=0;whiteSpace=wrap;html=1;shadow=0;fillColor=#669EFF;strokeColor=none;" vertex="1" parent="1">
          <mxGeometry x="219" y="686.25" width="59" height="35" as="geometry" />
        </mxCell>
        <mxCell id="Uk-baVgjcUokTITf2du6-13" value="" style="rounded=0;whiteSpace=wrap;html=1;shadow=0;fillColor=#669EFF;direction=south;" vertex="1" parent="1">
          <mxGeometry x="296" y="654.88" width="29" height="97.75" as="geometry" />
        </mxCell>
        <mxCell id="Uk-baVgjcUokTITf2du6-24" value="" style="rounded=0;whiteSpace=wrap;html=1;shadow=0;direction=south;fillColor=#CCCCCC;" vertex="1" parent="1">
          <mxGeometry x="368" y="548.62" width="29" height="97.75" as="geometry" />
        </mxCell>
        <mxCell id="Uk-baVgjcUokTITf2du6-45" style="edgeStyle=orthogonalEdgeStyle;rounded=0;orthogonalLoop=1;jettySize=auto;html=1;strokeColor=#FF644D;" edge="1" parent="1" source="Uk-baVgjcUokTITf2du6-25" target="Uk-baVgjcUokTITf2du6-44">
          <mxGeometry relative="1" as="geometry" />
        </mxCell>
        <mxCell id="Uk-baVgjcUokTITf2du6-25" value="" style="rounded=0;whiteSpace=wrap;html=1;shadow=0;fillColor=#669EFF;direction=south;" vertex="1" parent="1">
          <mxGeometry x="397" y="548.62" width="29" height="97.75" as="geometry" />
        </mxCell>
        <mxCell id="Uk-baVgjcUokTITf2du6-29" value="F" style="text;html=1;strokeColor=none;fillColor=none;align=center;verticalAlign=middle;whiteSpace=wrap;rounded=0;shadow=0;" vertex="1" parent="1">
          <mxGeometry x="290.5" y="766" width="40" height="20" as="geometry" />
        </mxCell>
        <mxCell id="Uk-baVgjcUokTITf2du6-36" value="" style="endArrow=classic;startArrow=classic;html=1;" edge="1" parent="1">
          <mxGeometry width="50" height="50" relative="1" as="geometry">
            <mxPoint x="338" y="753" as="sourcePoint" />
            <mxPoint x="338" y="651.63" as="targetPoint" />
          </mxGeometry>
        </mxCell>
        <mxCell id="Uk-baVgjcUokTITf2du6-37" value="t" style="text;html=1;strokeColor=none;fillColor=none;align=center;verticalAlign=middle;whiteSpace=wrap;rounded=0;shadow=0;" vertex="1" parent="1">
          <mxGeometry x="316" y="630.63" width="40" height="20" as="geometry" />
        </mxCell>
        <mxCell id="Uk-baVgjcUokTITf2du6-38" value="" style="endArrow=classic;startArrow=classic;html=1;" edge="1" parent="1">
          <mxGeometry width="50" height="50" relative="1" as="geometry">
            <mxPoint x="524" y="542" as="sourcePoint" />
            <mxPoint x="553" y="542" as="targetPoint" />
          </mxGeometry>
        </mxCell>
        <mxCell id="Uk-baVgjcUokTITf2du6-39" value="2F" style="text;html=1;strokeColor=none;fillColor=none;align=center;verticalAlign=middle;whiteSpace=wrap;rounded=0;shadow=0;" vertex="1" parent="1">
          <mxGeometry x="376" y="510.5" width="40" height="20" as="geometry" />
        </mxCell>
        <mxCell id="Uk-baVgjcUokTITf2du6-40" value="" style="endArrow=classic;startArrow=classic;html=1;" edge="1" parent="1">
          <mxGeometry width="50" height="50" relative="1" as="geometry">
            <mxPoint x="434" y="652" as="sourcePoint" />
            <mxPoint x="434" y="551" as="targetPoint" />
          </mxGeometry>
        </mxCell>
        <mxCell id="Uk-baVgjcUokTITf2du6-41" value="t" style="text;html=1;strokeColor=none;fillColor=none;align=center;verticalAlign=middle;whiteSpace=wrap;rounded=0;shadow=0;" vertex="1" parent="1">
          <mxGeometry x="414" y="528.62" width="40" height="20" as="geometry" />
        </mxCell>
        <mxCell id="Uk-baVgjcUokTITf2du6-42" value="RGB 流" style="text;html=1;strokeColor=none;fillColor=none;align=center;verticalAlign=middle;whiteSpace=wrap;rounded=0;shadow=0;" vertex="1" parent="1">
          <mxGeometry x="156" y="752" width="63" height="20" as="geometry" />
        </mxCell>
        <mxCell id="Uk-baVgjcUokTITf2du6-47" style="edgeStyle=orthogonalEdgeStyle;rounded=0;orthogonalLoop=1;jettySize=auto;html=1;entryX=0.5;entryY=1;entryDx=0;entryDy=0;strokeColor=#FF644D;" edge="1" parent="1" source="Uk-baVgjcUokTITf2du6-44" target="Uk-baVgjcUokTITf2du6-46">
          <mxGeometry relative="1" as="geometry" />
        </mxCell>
        <mxCell id="Uk-baVgjcUokTITf2du6-44" value="全连接层" style="rounded=1;whiteSpace=wrap;html=1;shadow=0;fillColor=#97D077;strokeColor=none;" vertex="1" parent="1">
          <mxGeometry x="445" y="577.81" width="59" height="39.37" as="geometry" />
        </mxCell>
        <mxCell id="Uk-baVgjcUokTITf2du6-58" style="edgeStyle=orthogonalEdgeStyle;rounded=0;orthogonalLoop=1;jettySize=auto;html=1;strokeColor=#FF644D;" edge="1" parent="1" source="Uk-baVgjcUokTITf2du6-46" target="Uk-baVgjcUokTITf2du6-52">
          <mxGeometry relative="1" as="geometry" />
        </mxCell>
        <mxCell id="Uk-baVgjcUokTITf2du6-82" style="edgeStyle=orthogonalEdgeStyle;rounded=0;orthogonalLoop=1;jettySize=auto;html=1;entryX=0.5;entryY=1;entryDx=0;entryDy=0;strokeColor=#FF644D;" edge="1" parent="1" source="Uk-baVgjcUokTITf2du6-46" target="Uk-baVgjcUokTITf2du6-59">
          <mxGeometry relative="1" as="geometry">
            <Array as="points">
              <mxPoint x="538" y="730" />
              <mxPoint x="711" y="730" />
            </Array>
          </mxGeometry>
        </mxCell>
        <mxCell id="Uk-baVgjcUokTITf2du6-46" value="" style="rounded=0;whiteSpace=wrap;html=1;shadow=0;direction=south;fillColor=#CCCCCC;" vertex="1" parent="1">
          <mxGeometry x="523" y="548.62" width="29" height="97.75" as="geometry" />
        </mxCell>
        <mxCell id="Uk-baVgjcUokTITf2du6-68" style="edgeStyle=orthogonalEdgeStyle;rounded=0;orthogonalLoop=1;jettySize=auto;html=1;strokeColor=#FF644D;" edge="1" parent="1" source="Uk-baVgjcUokTITf2du6-51" target="Uk-baVgjcUokTITf2du6-53">
          <mxGeometry relative="1" as="geometry" />
        </mxCell>
        <mxCell id="Uk-baVgjcUokTITf2du6-51" value="k-max多示例学习" style="rounded=1;whiteSpace=wrap;html=1;shadow=0;fillColor=#97D077;strokeColor=none;" vertex="1" parent="1">
          <mxGeometry x="604" y="505" width="59" height="39.37" as="geometry" />
        </mxCell>
        <mxCell id="Uk-baVgjcUokTITf2du6-71" style="edgeStyle=orthogonalEdgeStyle;rounded=0;orthogonalLoop=1;jettySize=auto;html=1;strokeColor=#FF644D;" edge="1" parent="1" source="Uk-baVgjcUokTITf2du6-52" target="Uk-baVgjcUokTITf2du6-51">
          <mxGeometry relative="1" as="geometry">
            <Array as="points">
              <mxPoint x="586" y="525" />
            </Array>
          </mxGeometry>
        </mxCell>
        <mxCell id="Uk-baVgjcUokTITf2du6-79" style="edgeStyle=orthogonalEdgeStyle;rounded=0;orthogonalLoop=1;jettySize=auto;html=1;entryX=0;entryY=0.5;entryDx=0;entryDy=0;strokeColor=#FF644D;" edge="1" parent="1" source="Uk-baVgjcUokTITf2du6-52" target="Uk-baVgjcUokTITf2du6-62">
          <mxGeometry relative="1" as="geometry">
            <Array as="points">
              <mxPoint x="584" y="678" />
            </Array>
          </mxGeometry>
        </mxCell>
        <mxCell id="Uk-baVgjcUokTITf2du6-52" value="标签映射" style="rounded=1;whiteSpace=wrap;html=1;shadow=0;fillColor=#97D077;strokeColor=none;" vertex="1" parent="1">
          <mxGeometry x="570" y="577.81" width="59" height="39.37" as="geometry" />
        </mxCell>
        <mxCell id="Uk-baVgjcUokTITf2du6-69" style="edgeStyle=orthogonalEdgeStyle;rounded=0;orthogonalLoop=1;jettySize=auto;html=1;strokeColor=#FF644D;" edge="1" parent="1" source="Uk-baVgjcUokTITf2du6-53" target="Uk-baVgjcUokTITf2du6-54">
          <mxGeometry relative="1" as="geometry" />
        </mxCell>
        <mxCell id="Uk-baVgjcUokTITf2du6-53" value="softmax" style="rounded=1;whiteSpace=wrap;html=1;shadow=0;fillColor=#97D077;strokeColor=none;" vertex="1" parent="1">
          <mxGeometry x="678" y="505" width="59" height="39.37" as="geometry" />
        </mxCell>
        <mxCell id="Uk-baVgjcUokTITf2du6-70" style="edgeStyle=orthogonalEdgeStyle;rounded=0;orthogonalLoop=1;jettySize=auto;html=1;entryX=0.5;entryY=0;entryDx=0;entryDy=0;strokeColor=#FF644D;" edge="1" parent="1" source="Uk-baVgjcUokTITf2du6-54" target="Uk-baVgjcUokTITf2du6-60">
          <mxGeometry relative="1" as="geometry" />
        </mxCell>
        <mxCell id="Uk-baVgjcUokTITf2du6-54" value="交叉熵损失" style="rounded=1;whiteSpace=wrap;html=1;shadow=0;fillColor=#97D077;strokeColor=none;" vertex="1" parent="1">
          <mxGeometry x="752.5" y="505" width="59" height="39.37" as="geometry" />
        </mxCell>
        <mxCell id="Uk-baVgjcUokTITf2du6-83" style="edgeStyle=orthogonalEdgeStyle;rounded=0;orthogonalLoop=1;jettySize=auto;html=1;strokeColor=#FF644D;" edge="1" parent="1" source="Uk-baVgjcUokTITf2du6-59" target="Uk-baVgjcUokTITf2du6-81">
          <mxGeometry relative="1" as="geometry" />
        </mxCell>
        <mxCell id="Uk-baVgjcUokTITf2du6-59" value="" style="shape=sumEllipse;perimeter=ellipsePerimeter;whiteSpace=wrap;html=1;backgroundOutline=1;shadow=0;strokeColor=#000000;fillColor=none;strokeWidth=2;" vertex="1" parent="1">
          <mxGeometry x="700" y="667.05" width="22" height="22" as="geometry" />
        </mxCell>
        <mxCell id="Uk-baVgjcUokTITf2du6-87" style="edgeStyle=orthogonalEdgeStyle;rounded=0;orthogonalLoop=1;jettySize=auto;html=1;strokeColor=#FF644D;" edge="1" parent="1" source="Uk-baVgjcUokTITf2du6-60" target="Uk-baVgjcUokTITf2du6-85">
          <mxGeometry relative="1" as="geometry" />
        </mxCell>
        <mxCell id="Uk-baVgjcUokTITf2du6-60" value="" style="shape=orEllipse;perimeter=ellipsePerimeter;whiteSpace=wrap;html=1;backgroundOutline=1;shadow=0;strokeColor=#000000;strokeWidth=2;fillColor=none;" vertex="1" parent="1">
          <mxGeometry x="771" y="590" width="22" height="22" as="geometry" />
        </mxCell>
        <mxCell id="Uk-baVgjcUokTITf2du6-80" style="edgeStyle=orthogonalEdgeStyle;rounded=0;orthogonalLoop=1;jettySize=auto;html=1;entryX=0;entryY=0.5;entryDx=0;entryDy=0;strokeColor=#FF644D;" edge="1" parent="1" source="Uk-baVgjcUokTITf2du6-62" target="Uk-baVgjcUokTITf2du6-59">
          <mxGeometry relative="1" as="geometry" />
        </mxCell>
        <mxCell id="Uk-baVgjcUokTITf2du6-62" value="softmax" style="rounded=1;whiteSpace=wrap;html=1;shadow=0;fillColor=#97D077;strokeColor=none;" vertex="1" parent="1">
          <mxGeometry x="604" y="658.36" width="59" height="39.37" as="geometry" />
        </mxCell>
        <mxCell id="Uk-baVgjcUokTITf2du6-74" style="edgeStyle=orthogonalEdgeStyle;rounded=0;orthogonalLoop=1;jettySize=auto;html=1;entryX=0.5;entryY=0;entryDx=0;entryDy=0;strokeColor=#FF644D;" edge="1" parent="1" source="Uk-baVgjcUokTITf2du6-73" target="Uk-baVgjcUokTITf2du6-54">
          <mxGeometry relative="1" as="geometry" />
        </mxCell>
        <mxCell id="Uk-baVgjcUokTITf2du6-73" value="视频级别标签" style="text;html=1;strokeColor=none;fillColor=none;align=center;verticalAlign=middle;whiteSpace=wrap;rounded=0;shadow=0;" vertex="1" parent="1">
          <mxGeometry x="739.75" y="447" width="84.5" height="20" as="geometry" />
        </mxCell>
        <mxCell id="Uk-baVgjcUokTITf2du6-84" style="edgeStyle=orthogonalEdgeStyle;rounded=0;orthogonalLoop=1;jettySize=auto;html=1;entryX=0.5;entryY=1;entryDx=0;entryDy=0;strokeColor=#FF644D;" edge="1" parent="1" source="Uk-baVgjcUokTITf2du6-81" target="Uk-baVgjcUokTITf2du6-60">
          <mxGeometry relative="1" as="geometry" />
        </mxCell>
        <mxCell id="Uk-baVgjcUokTITf2du6-81" value="相似动作损失" style="rounded=1;whiteSpace=wrap;html=1;shadow=0;fillColor=#97D077;strokeColor=none;" vertex="1" parent="1">
          <mxGeometry x="752.5" y="658.36" width="59" height="39.37" as="geometry" />
        </mxCell>
        <mxCell id="Uk-baVgjcUokTITf2du6-85" value="最终损失" style="text;html=1;strokeColor=none;fillColor=none;align=center;verticalAlign=middle;whiteSpace=wrap;rounded=0;shadow=0;" vertex="1" parent="1">
          <mxGeometry x="811.5" y="591" width="53" height="20" as="geometry" />
        </mxCell>
        <mxCell id="Uk-baVgjcUokTITf2du6-89" style="edgeStyle=orthogonalEdgeStyle;rounded=0;orthogonalLoop=1;jettySize=auto;html=1;entryX=0.5;entryY=1;entryDx=0;entryDy=0;strokeColor=#FF644D;" edge="1" parent="1" source="Uk-baVgjcUokTITf2du6-88" target="Uk-baVgjcUokTITf2du6-81">
          <mxGeometry relative="1" as="geometry" />
        </mxCell>
        <mxCell id="Uk-baVgjcUokTITf2du6-88" value="视频级别标签" style="text;html=1;strokeColor=none;fillColor=none;align=center;verticalAlign=middle;whiteSpace=wrap;rounded=0;shadow=0;" vertex="1" parent="1">
          <mxGeometry x="739.75" y="735" width="84.5" height="20" as="geometry" />
        </mxCell>
        <mxCell id="Uk-baVgjcUokTITf2du6-91" value="" style="shape=cube;whiteSpace=wrap;html=1;boundedLbl=1;backgroundOutline=1;darkOpacity=0.05;darkOpacity2=0.1;shadow=0;size=36;direction=south;fillColor=#CCCCCC;strokeColor=none;" vertex="1" parent="1">
          <mxGeometry x="92" y="447.19" width="52" height="111.5" as="geometry" />
        </mxCell>
        <mxCell id="Uk-baVgjcUokTITf2du6-92" value="" style="shape=cube;whiteSpace=wrap;html=1;boundedLbl=1;backgroundOutline=1;darkOpacity=0.05;darkOpacity2=0.1;shadow=0;size=30;direction=south;strokeColor=none;fillColor=#CCCCCC;" vertex="1" parent="1">
          <mxGeometry x="138" y="468.19" width="45" height="83.25" as="geometry" />
        </mxCell>
        <mxCell id="Uk-baVgjcUokTITf2du6-93" style="edgeStyle=orthogonalEdgeStyle;rounded=0;orthogonalLoop=1;jettySize=auto;html=1;strokeColor=#FF644D;" edge="1" parent="1" source="Uk-baVgjcUokTITf2du6-94" target="Uk-baVgjcUokTITf2du6-95">
          <mxGeometry relative="1" as="geometry" />
        </mxCell>
        <mxCell id="Uk-baVgjcUokTITf2du6-94" value="" style="shape=cube;whiteSpace=wrap;html=1;boundedLbl=1;backgroundOutline=1;darkOpacity=0.05;darkOpacity2=0.1;shadow=0;size=14;direction=south;strokeColor=none;fillColor=#CCCCCC;" vertex="1" parent="1">
          <mxGeometry x="174" y="502.19" width="28" height="45.5" as="geometry" />
        </mxCell>
        <mxCell id="Uk-baVgjcUokTITf2du6-102" style="edgeStyle=orthogonalEdgeStyle;rounded=0;orthogonalLoop=1;jettySize=auto;html=1;strokeColor=#FF644D;" edge="1" parent="1" source="Uk-baVgjcUokTITf2du6-95" target="Uk-baVgjcUokTITf2du6-96">
          <mxGeometry relative="1" as="geometry" />
        </mxCell>
        <mxCell id="Uk-baVgjcUokTITf2du6-95" value="特征池化" style="rounded=0;whiteSpace=wrap;html=1;shadow=0;fillColor=#CCCCCC;strokeColor=none;" vertex="1" parent="1">
          <mxGeometry x="219" y="507.44" width="59" height="35" as="geometry" />
        </mxCell>
        <mxCell id="Uk-baVgjcUokTITf2du6-96" value="" style="rounded=0;whiteSpace=wrap;html=1;shadow=0;direction=south;fillColor=#CCCCCC;" vertex="1" parent="1">
          <mxGeometry x="296" y="475.44" width="29" height="97.75" as="geometry" />
        </mxCell>
        <mxCell id="Uk-baVgjcUokTITf2du6-97" value="" style="endArrow=classic;startArrow=classic;html=1;" edge="1" parent="1">
          <mxGeometry width="50" height="50" relative="1" as="geometry">
            <mxPoint x="293.5" y="585.19" as="sourcePoint" />
            <mxPoint x="330" y="585.19" as="targetPoint" />
          </mxGeometry>
        </mxCell>
        <mxCell id="Uk-baVgjcUokTITf2du6-98" value="F" style="text;html=1;strokeColor=none;fillColor=none;align=center;verticalAlign=middle;whiteSpace=wrap;rounded=0;shadow=0;" vertex="1" parent="1">
          <mxGeometry x="293" y="589.19" width="40" height="20" as="geometry" />
        </mxCell>
        <mxCell id="Uk-baVgjcUokTITf2du6-99" value="" style="endArrow=classic;startArrow=classic;html=1;" edge="1" parent="1">
          <mxGeometry width="50" height="50" relative="1" as="geometry">
            <mxPoint x="338" y="573.8200000000002" as="sourcePoint" />
            <mxPoint x="338" y="472.8200000000001" as="targetPoint" />
          </mxGeometry>
        </mxCell>
        <mxCell id="Uk-baVgjcUokTITf2du6-100" value="t" style="text;html=1;strokeColor=none;fillColor=none;align=center;verticalAlign=middle;whiteSpace=wrap;rounded=0;shadow=0;" vertex="1" parent="1">
          <mxGeometry x="316" y="451.82" width="40" height="20" as="geometry" />
        </mxCell>
        <mxCell id="Uk-baVgjcUokTITf2du6-101" value="FLOW 流" style="text;html=1;strokeColor=none;fillColor=none;align=center;verticalAlign=middle;whiteSpace=wrap;rounded=0;shadow=0;" vertex="1" parent="1">
          <mxGeometry x="149" y="573.19" width="63" height="20" as="geometry" />
        </mxCell>
        <mxCell id="Uk-baVgjcUokTITf2du6-105" value="" style="endArrow=classic;startArrow=classic;html=1;" edge="1" parent="1">
          <mxGeometry width="50" height="50" relative="1" as="geometry">
            <mxPoint x="292" y="765" as="sourcePoint" />
            <mxPoint x="330" y="765.19" as="targetPoint" />
          </mxGeometry>
        </mxCell>
        <mxCell id="Uk-baVgjcUokTITf2du6-107" value="2F" style="text;html=1;strokeColor=none;fillColor=none;align=center;verticalAlign=middle;whiteSpace=wrap;rounded=0;shadow=0;" vertex="1" parent="1">
          <mxGeometry x="517.5" y="514.94" width="40" height="20" as="geometry" />
        </mxCell>
        <mxCell id="Uk-baVgjcUokTITf2du6-108" value="" style="endArrow=classic;startArrow=classic;html=1;" edge="1" parent="1">
          <mxGeometry width="50" height="50" relative="1" as="geometry">
            <mxPoint x="565" y="647" as="sourcePoint" />
            <mxPoint x="565" y="546" as="targetPoint" />
          </mxGeometry>
        </mxCell>
        <mxCell id="Uk-baVgjcUokTITf2du6-109" value="t" style="text;html=1;strokeColor=none;fillColor=none;align=center;verticalAlign=middle;whiteSpace=wrap;rounded=0;shadow=0;" vertex="1" parent="1">
          <mxGeometry x="545" y="523.62" width="40" height="20" as="geometry" />
        </mxCell>
      </root>
    </mxGraphModel>
  </diagram>
</mxfile>
